<svg id="Normal" xmlns="http://www.w3.org/2000/svg" xmlns:xlink="http://www.w3.org/1999/xlink" viewBox="0 0 126 160.54"><defs><style>.cls-1,.cls-2,.car{fill:none;}.cls-2{clip-rule:evenodd;}.cls-3{clip-path:url(#clip-path);}.car{stroke:#2c2c2c;stroke-linecap:square;stroke-miterlimit:10;stroke-width:7px;}.cls-5{clip-path:url(#clip-path-2);}.clock{fill:#2c2c2c;}</style><clipPath id="clip-path" transform="translate(-22.5 -4.5)"><rect class="cls-1" width="170" height="170"/></clipPath><clipPath id="clip-path-2" transform="translate(-22.5 -4.5)"><path class="cls-2" d="M62.51,63,75,88.21Q87.46,62.05,100,46a80.45,80.45,0,0,1,30-24V56.85q-14.4,6.07-27.89,21.9A210.69,210.69,0,0,0,77.1,116Q62.51,98.85,56.57,94C45.54,84.88,38,81.6,38,80.85Q38,79.11,62.51,63Z"/></clipPath></defs><title>Icon-selectSingle</title><g class="cls-3"><path class="car" d="M34,8H137a8,8,0,0,1,8,8V99.47L85.5,160,26,97V16A8,8,0,0,1,34,8Z" transform="translate(-22.5 -4.5)"/></g><g class="cls-5"><g class="cls-3"><rect class="clock" x="10.5" y="12.5" width="102" height="104"/></g></g></svg>