<svg id="Normal" xmlns="http://www.w3.org/2000/svg" xmlns:xlink="http://www.w3.org/1999/xlink" viewBox="0 0 36.64 38.69"><defs><style>.cls-1,.cls-2,.cls-7{fill:none;}.cls-1{clip-rule:evenodd;}.cls-3{clip-path:url(#clip-path);}.car{clip-path:url(#clip-path-2);}.cls-5{fill:#2c2c2c;}.clock{clip-path:url(#clip-path-3);}.cls-7{stroke:#2c2c2c;stroke-linecap:square;stroke-miterlimit:10;stroke-width:2px;}.cls-8{clip-path:url(#clip-path-4);}.cls-9{clip-path:url(#clip-path-5);}</style><clipPath id="clip-path" transform="translate(-8.84 -1.15)"><path class="cls-1" d="M33.68,15.41a41,41,0,0,1,2.68-4.82A15.82,15.82,0,0,1,42,5.24V13a15.16,15.16,0,0,0-5.21,4.88,43.09,43.09,0,0,0-3.07,5Z"/></clipPath><clipPath id="clip-path-2" transform="translate(-8.84 -1.15)"><rect class="cls-2" x="9.9" y="1.67" width="36.09" height="43.41"/></clipPath><clipPath id="clip-path-3" transform="translate(-8.84 -1.15)"><rect class="cls-2" x="7.32" y="1" width="39" height="39"/></clipPath><clipPath id="clip-path-4" transform="translate(-8.84 -1.15)"><path class="cls-1" d="M18,20.91l2.34,5.35a50.42,50.42,0,0,1,4.69-9,15.53,15.53,0,0,1,5.62-5.1v7.4a14.87,14.87,0,0,0-5.23,4.65,45.37,45.37,0,0,0-4.69,7.92,42.32,42.32,0,0,0-3.85-4.68c-2.07-1.93-3.48-2.63-3.48-2.79S14.93,23.19,18,20.91Z"/></clipPath><clipPath id="clip-path-5" transform="translate(-8.84 -1.15)"><rect class="cls-2" x="9.14" y="1.73" width="36.2" height="41.39"/></clipPath></defs><title>Icon-selectMultiple</title><g class="cls-3"><g class="car"><rect class="cls-5" x="23.77" y="2.82" width="10.4" height="20.2"/></g></g><g class="clock"><path class="cls-7" d="M30.48,29.18,33,26.61v-16A1.83,1.83,0,0,0,31.18,8.8H21.31V4a1.84,1.84,0,0,1,1.84-1.83h19.5A1.83,1.83,0,0,1,44.48,4V20L32.9,31.74Z" transform="translate(-8.84 -1.15)"/><path class="cls-7" d="M11.68,8.8h19.5A1.83,1.83,0,0,1,33,10.64v16L21.43,38.39,9.84,26.12V10.64A1.84,1.84,0,0,1,11.68,8.8Z" transform="translate(-8.84 -1.15)"/></g><g class="cls-8"><g class="cls-9"><rect class="cls-5" x="3.49" y="9.83" width="19.38" height="22.4"/></g></g></svg>