<svg width="212px" height="160px" viewBox="0 0 212 160" version="1.1" xmlns="http://www.w3.org/2000/svg" xmlns:xlink="http://www.w3.org/1999/xlink">
    <!-- Generator: Sketch 50.2 (55047) - http://www.bohemiancoding.com/sketch -->
    <desc>Created with Sketch.</desc>
    <defs></defs>
    <g id="Page-1" stroke="none" stroke-width="1" fill="none" fill-rule="evenodd">
        <g id="icon-drivetime-v3" transform="translate(-1.000000, -8.000000)">
            <g id="icon/drivetime" transform="translate(1.000000, 8.000000)">
                <g id="Group">
                    <path class="drivetime" d="M199.7,101.660824 L199.7,140.375 C199.7,145.826387 197.809998,150.460072 194.03,154.276042 C190.250002,158.092012 185.659998,160 180.26,160 L173.78,160 C168.380002,160 163.789998,158.092012 160.01,154.276042 C156.230002,150.460072 154.34,145.826387 154.34,140.375 L154.34,133.833333 L50.6599997,133.833333 L50.6599997,140.375 C50.6599997,145.826387 48.7699977,150.460072 44.9899997,154.276042 C41.2100017,158.092012 36.6199976,160 31.2199997,160 L24.7399996,160 C19.3400017,160 14.7499976,158.092012 10.9699996,154.276042 C7.19000164,150.460072 5.29999957,145.826387 5.29999957,140.375 L5.29999957,88.0416666 C5.29999957,82.3177083 8.00000166,73.6172982 10.9699996,68.4384766 C8.99000097,67.1664845 6.62801217,65.3351043 3.8840332,62.9443359 C2.44626483,61.3461205 1.51324075,59.2178653 1.08496094,56.5595703 C0.656681129,53.9012753 0.656681129,51.1942441 1.08496094,48.4384766 C1.5643606,45.7587892 2.29906112,43.6012371 3.2890625,41.9658203 C4.27906388,40.3304038 6.28825985,38.7272137 9.31665039,37.15625 C12.681071,36.1909722 16.4101562,35.7083333 20.5039062,35.7083333 L35.2699997,35.7083333 L38.5099997,25.4869792 C40.6699975,18.9453125 44.5849996,13.5620639 50.2549996,9.3372396 C55.9249999,5.11241528 62.2700018,3 69.29,3 L117.811935,3 C114.394883,5.4628111 111.228321,8.25602982 108.358212,11.3333334 L67.9805411,11.3333334 C63.3679262,11.3333334 59.2598183,12.7708334 55.6562166,15.6458334 C52.0526154,18.5208334 49.5300882,22.3541667 48.0886491,27.1458334 L39.4400003,57.3333334 L91.0253555,57.3333334 C91.1044444,60.1891912 91.3677294,62.9986234 91.803664,65.7499998 L33.7984612,65.7499998 C28.0933351,65.7499998 23.2439718,67.8645858 19.2503842,72.0937502 C15.2567967,76.3229142 13.2599996,81.4583357 13.2599996,87.4999999 L13.2599996,123.75 L191.26,123.75 L191.26,108.656485 C194.269607,106.567337 197.093009,104.225303 199.7,101.660824 Z M15.8320312,61.7016602 C20.6981492,58.8691406 21.8081055,58.3537598 29.6159475,57.659694 L32.8149997,43.466146 L18.15625,43.466146 C12.520752,43.466146 10.8852539,45.1210938 10.003418,46.2502441 C9.12158203,47.3793945 8.50952148,50.3818254 8.50952148,52.996582 C8.50952148,54.7397531 8.89591471,56.2941238 9.66870117,57.659694 C10.9491374,59.2617274 13.0035807,60.6090495 15.8320312,61.7016602 Z M42.6999997,142.333333 L42.6999997,133.833333 L13.6999997,133.833333 L13.6999997,142.333333 C13.6999997,144.812503 14.6062496,146.848958 16.4187497,148.442709 C18.2312497,150.036459 20.5472188,150.833333 23.3666663,150.833333 L33.033333,150.833333 C35.8527806,150.833333 38.1687497,150.036459 39.9812497,148.442709 C41.7937497,146.848958 42.6999997,144.812503 42.6999997,142.333333 Z M191.3,142.333333 L191.3,133.833333 L162.3,133.833333 L162.3,142.333333 C162.3,144.812503 163.20625,146.848958 165.01875,148.442709 C166.83125,150.036459 169.14722,150.833333 171.966667,150.833333 L181.633334,150.833333 C184.452781,150.833333 186.768751,150.036459 188.581251,148.442709 C190.393751,146.848958 191.3,144.812503 191.3,142.333333 Z" id="car-copy" fill="#000000"></path>
                    <path class="drivetime" d="M47.8249997,78.2291666 C52.9550019,78.2291666 57.9499996,80.2734374 62.8099996,84.3619792 C67.6699997,88.4505209 70.0999999,92.9479166 70.0999999,97.8541666 C70.0999999,101.125 69.0199979,103.850697 66.8599997,106.03125 C63.8900017,109.302083 58.8949976,110.9375 51.8749998,110.9375 L47.8249997,110.9375 C42.4250019,110.9375 38.0374976,109.370228 34.6624997,106.235677 C31.2875017,103.101126 29.5999997,99.2170116 29.5999997,94.5833332 C29.5999997,89.9496547 31.2875017,86.0655403 34.6624997,82.9309896 C38.0374976,79.7964389 42.4250019,78.2291666 47.8249997,78.2291666 Z M52.4761537,103.041667 C59.7453844,103.041667 63.3799998,101.713541 63.3799998,99.0572913 C63.3799998,96.4010413 61.4761508,93.567711 57.6684615,90.5572916 C53.8607717,87.5468721 50.3126895,86.0416666 47.0242307,86.0416666 C43.7357719,86.0416666 41.1396179,86.8385417 39.235769,88.4322918 C37.33192,90.0260419 36.3799998,92.0624971 36.3799998,94.5416663 C36.3799998,97.0208361 37.33192,99.0572913 39.235769,100.651041 C41.1396179,102.244792 43.822305,103.041667 47.2838459,103.041667 L52.4761537,103.041667 Z" id="headlamp-copy" fill="#000000"></path>
                    <path class="drivetime" d="M156,112 C125.072054,112 100,86.927946 100,56 C100,25.072054 125.072054,0 156,0 C186.927946,0 212,25.072054 212,56 C212,86.927946 186.927946,112 156,112 Z M156,105 C183.061953,105 205,83.0619527 205,56 C205,28.9380473 183.061953,7 156,7 C128.938047,7 107,28.9380473 107,56 C107,83.0619527 128.938047,105 156,105 Z" id="clock-face-copy" fill="#2C2C2C"></path>
                    <polyline class="drivetime" id="Path-3-Copy" stroke="#2C2C2C" stroke-width="8" points="156 29 156 64.1612992 172 77"></polyline>
                </g>
            </g>
        </g>
    </g>
</svg>