<?xml version="1.0" encoding="UTF-8"?>
<svg width="298px" height="314px" viewBox="0 0 298 314" version="1.1" xmlns="http://www.w3.org/2000/svg" xmlns:xlink="http://www.w3.org/1999/xlink">
    <!-- Generator: Sketch 63.1 (92452) - https://sketch.com -->
    <title>Unsubscribe email with people</title>
    <desc>Created with Sketch.</desc>
    <defs>
        <linearGradient x1="-0.0031356809%" y1="49.9998747%" x2="100.009407%" y2="49.9998747%" id="linearGradient-1">
            <stop stop-color="#2E90FE" offset="8%"></stop>
            <stop stop-color="#2077E7" offset="64%"></stop>
            <stop stop-color="#1A6DDE" offset="100%"></stop>
        </linearGradient>
    </defs>
    <g id="F034---Unsubscribe" stroke="none" stroke-width="1" fill="none" fill-rule="evenodd">
        <g id="21.0" transform="translate(-946.000000, -138.000000)">
            <g id="Unsubscribe-email-with-people" transform="translate(946.000000, 138.000000)">
                <path d="M73.1136,73.1766 C70.9748991,66.3095883 68.425095,59.5774324 65.478,53.0166 C60.018,41.1558 56.8428,21.5712 83.3994,6.594 C124.2276,-16.4346 112.6188,29.5722 150.4482,14.994 C188.2776,0.4158 228.8286,-0.126 234.2172,33.5832 C239.6058,67.2924 240.0972,83.7102 260.1438,89.5146 C301.0476,101.3544 317.7846,164.5644 260.778,191.8434 C203.7714,219.1224 190.0962,181.6374 165.438,182.7378 C140.7798,183.8382 151.158,95.823 109.578,93.765 C84.1974,92.4966 75.8016,81.543 73.1136,73.1766 Z" id="Path" fill="#C2D8F0" fill-rule="nonzero"></path>
                <path d="M203.7924,251.6976 L213.6204,260.5176 L207.4086,263.1636 C207.4086,263.1636 200.97,253.1214 201.222,252.3822 C201.474,251.643 203.7924,251.6976 203.7924,251.6976 Z" id="Path" fill="#ED5353" fill-rule="nonzero"></path>
                <path d="M204.12,251.8404 C204.12,251.8404 202.4778,247.8924 200.9742,247.1616 C199.8696,246.6282 197.6394,246.3216 196.5348,246.2082 C196.454741,246.195219 196.376147,246.238502 196.344318,246.3131 C196.31249,246.387698 196.335629,246.474387 196.4004,246.5232 L197.799,247.5354 L195.9342,247.38 L195.762,248.7156 C195.697497,249.284452 196.084945,249.805945 196.6482,249.9084 L199.5882,250.4796 C199.5882,250.4796 198.975,251.5758 201.9696,253.386 C202.6416,253.8102 204.12,251.8404 204.12,251.8404 Z" id="Path" fill="#ED5353" fill-rule="nonzero"></path>
                <path d="M173.6406,254.058 C173.6406,254.058 182.9394,256.6662 191.436,284.3946 L208.9374,272.8572 C208.9374,272.8572 210.7266,253.0164 192.5574,241.7982 L173.6406,254.058 Z" id="Path" fill="#C2D8F0" fill-rule="nonzero"></path>
                <path d="M198.6894,173.6448 C189.836044,168.28835 178.818655,167.980494 169.68,172.8342 L97.9104,211.5288 L77.5488,222.4194 C64.2852,229.5132 63.3486,248.136 75.8016,257.0988 L75.8016,257.0988 C92.5344,269.1402 114.4836,270.7908 132.3546,261.345 L156.7146,248.472 L214.032,215.04 C226.3086,207.879 226.107,190.071 213.6666,182.6202 L198.6894,173.6448 Z" id="Path" fill="#C2D8F0" fill-rule="nonzero"></path>
                <path d="M149.6838,231.126 L149.6838,231.126 C143.437128,231.126 138.3732,226.062072 138.3732,219.8154 L138.3732,76.7088 L160.9944,76.7088 L160.9944,219.8154 C160.9944,226.062072 155.930472,231.126 149.6838,231.126 L149.6838,231.126 Z" id="Path" fill="#0D3B6E" fill-rule="nonzero"></path>
                <polygon id="Path" fill="#0A2B52" fill-rule="nonzero" points="137.8356 165.7026 138.3732 76.7088 160.9944 76.7088 160.9944 165.7026"></polygon>
                <path d="M184.4724,30.7566 L181.7088,29.1648 C172.4688,24.1248 162.0948,25.6032 152.5524,31.0926 L152.5524,31.0926 L76.4778,74.76 L128.94,170.8098 L206.4384,126.2268 C208.903605,124.799514 210.420001,122.166375 210.420001,119.3178 L210.420001,75.726 C210.422659,57.1778986 200.532061,40.0366513 184.4724,30.7566 Z" id="Path" fill="url(#linearGradient-1)" fill-rule="nonzero"></path>
                <path d="M128.940006,170.8098 L60.8244,131.46 L60.8244,98.784 C60.8244,78.561 82.719,65.919 100.233,76.0326 L102.9966,77.6286 C119.059147,86.9093173 128.949126,104.055469 128.940006,122.6064 L128.940006,170.8098 Z" id="Path" fill="#13549C" fill-rule="nonzero"></path>
                <path d="M122.8626,98.2086 L60.8244,131.46 L128.940015,170.8098 L128.940015,122.6064 C128.946464,114.098369 126.859308,105.719455 122.8626,98.2086 Z" id="Path" fill="#1A77DE" fill-rule="nonzero"></path>
                <path d="M60.8244,131.46 L39.2448,144.2322 C23.1882,153.72 23.1,176.9334 39.1062,186.5304 L39.1062,186.5304 C58.2717629,198.030544 82.1832848,198.164191 101.4762,186.879 L128.94,170.8098 L128.94,166.5216 L60.8244,131.46 Z" id="Path" fill="#1257A1" fill-rule="nonzero"></path>
                <path d="M61.32,131.46 L39.2364,142.8 C23.1798,152.2962 23.1126,172.62 39.1062,182.2128 L39.1062,182.2128 C58.2730328,193.708408 82.1820656,193.842041 101.4762,182.5614 L128.94,166.5216 L61.32,131.46 Z" id="Path" fill="#1563B8" fill-rule="nonzero"></path>
                <ellipse id="Oval" fill="#0D3B6E" fill-rule="nonzero" transform="translate(167.047030, 126.891004) rotate(-59.430000) translate(-167.047030, -126.891004) " cx="167.04703" cy="126.891004" rx="8.7234" ry="5.5524"></ellipse>
                <ellipse id="Oval" fill="#FFFFFF" fill-rule="nonzero" transform="translate(170.130406, 128.104814) rotate(-59.430000) translate(-170.130406, -128.104814) " cx="170.130406" cy="128.104814" rx="8.7234" ry="5.5524"></ellipse>
                <polygon id="Path" fill="#C24444" fill-rule="nonzero" points="167.4498 64.2684 187.761 54.0666 187.761 68.8128 167.4498 80.3838"></polygon>
                <polygon id="Path" fill="#1257A1" fill-rule="nonzero" opacity="0.27" style="mix-blend-mode: multiply;" points="128.9568 145.7484 89.88 160.9482 61.32 143.199 108.5364 124.8366 128.9568 137.5248"></polygon>
                <path d="M169.9572,131.46 L169.9572,131.46 C168.565442,131.46 167.4372,130.331758 167.4372,128.94 L167.4372,61.2276 C167.4372,59.8358424 168.565442,58.7076 169.9572,58.7076 L169.9572,58.7076 C171.348958,58.7076 172.4772,59.8358424 172.4772,61.2276 L172.4772,128.9694 C172.461096,130.349663 171.337557,131.46 169.9572,131.46 L169.9572,131.46 Z" id="Path" fill="#0D3B6E" fill-rule="nonzero"></path>
                <path d="M167.4498,65.1 L167.5044,65.1294 C170.564587,67.0423216 174.419366,67.1531465 177.5844,65.4192 L191.3016,57.8928 L191.1588,73.584 L177.5424,81.3414 C174.406813,83.1252162 170.552419,83.0770363 167.4624,81.2154 L167.4624,81.2154 L167.4498,65.1 Z" id="Path" fill="#ED5353" fill-rule="nonzero"></path>
                <ellipse id="Oval" fill="#C2D8F0" fill-rule="nonzero" transform="translate(253.946558, 240.707961) rotate(-1.540000) translate(-253.946558, -240.707961) " cx="253.946558" cy="240.707961" rx="19.6644" ry="11.2014"></ellipse>
                <path d="M241.5966,240.7818 L247.0188,235.557 C247.7454,235.137 249.3834,234.8262 250.5006,234.8598 C250.965982,234.847741 251.364259,235.19146 251.4204,235.6536 L251.5044,236.607 C251.6766,237.972 251.538,238.182 250.5762,238.7574 L244.86,242.1636 C243.8982,242.739 242.4282,242.9196 241.5924,242.5836 L241.3572,242.4828 C240.534,242.1132 240.6348,241.353 241.5966,240.7818 Z" id="Path" fill="#343456" fill-rule="nonzero"></path>
                <path d="M250.677,235.4562 C250.5216,237.363 246.6114,237.8838 246.6198,235.9392 C242.697,217.749 242.8146,201.264 242.7474,182.2044 L255.066,172.725 C253.386,189.189 251.286,203.0994 250.9374,217.3668 C250.8954,219.2148 251.7312,221.214 251.7564,222.9948 C251.8068,226.6908 250.5174,231.84 250.677,235.4562 Z" id="Path" fill="#ED5353" fill-rule="nonzero"></path>
                <path d="M249.9714,236.5818 C249.9714,236.5818 245.8932,239.0346 245.0238,238.6398 C244.293,238.3038 247.1826,235.6998 247.1826,235.6998 L249.9714,236.5818 Z" id="Path" fill="#ED5353" fill-rule="nonzero"></path>
                <path d="M267.2166,238.7784 L267.4812,229.9332 C267.729,229.0932 268.8588,228.9924 269.787,228.2532 C270.178267,227.92733 270.742824,227.915133 271.1478,228.2238 L271.9626,228.8832 C273.168,229.7862 273.2226,230.0424 272.895,231.126 L270.942,237.5814 C270.563685,238.716217 269.716304,239.633958 268.6152,240.1014 L268.3464,240.1854 C267.3972,240.5046 266.8848,239.8662 267.2166,238.7784 Z" id="Path" fill="#343456" fill-rule="nonzero"></path>
                <path d="M270.4086,228.48 C270.4086,228.48 269.64,234.0954 268.2414,234.36 C268.2414,234.36 267.3426,234.5322 267.4014,233.1 C267.4602,231.6678 267.2166,228.9 267.2166,228.9 L270.4086,228.48 Z" id="Path" fill="#ED5353" fill-rule="nonzero"></path>
                <path d="M270.2196,227.9256 C271.1268,229.2654 269.4594,231.7644 268.0188,230.8656 C263.046,226.2456 259.3248,222.6588 255.7884,219.0762 C253.1046,216.363 253.6884,209.6808 251.6304,205.8672 C246.7626,196.7658 257.7792,191.7132 260.6898,201.9276 C261.8826,206.1024 259.4298,209.9076 260.5134,213.6036 C261.0972,215.586 263.2938,215.7036 265.0788,218.7066 C266.8638,221.7096 267.666,223.5576 270.2196,227.9256 Z" id="Path" fill="#ED5353" fill-rule="nonzero"></path>
                <path d="M219.0174,168.8064 L219.0174,168.8064 C220.1472,168.2898 220.731,167.0802 220.3194,166.1184 L217.9506,162.9306 C217.5306,161.9646 218.1018,161.1498 216.972,161.6706 L216.972,161.6706 C215.8422,162.1872 214.9476,162.8676 215.3508,164.8794 L216.5772,167.5716 C216.732807,167.922745 216.942559,168.247294 217.1988,168.5334 C217.6818,169.0458 218.127,169.2096 219.0174,168.8064 Z" id="Path" fill="#ED5353" fill-rule="nonzero"></path>
                <path d="M258.2034,139.2888 C260.2446,147.7602 272.7984,142.3422 269.4804,155.6436 C267.8844,162.036 251.5716,158.2182 251.5716,158.2182 L248.2116,139.1166 L258.2034,139.2888 Z" id="Path" fill="#233B6E" fill-rule="nonzero"></path>
                <path d="M245.3934,147.84 L229.9626,158.5584 C229.138274,159.129343 228.655531,160.075898 228.6774,161.0784 C228.7194,163.233 229.4544,166.5384 233.7552,165.228 C246.5652,161.3682 245.3934,147.84 245.3934,147.84 Z" id="Path" fill="#F0A711" fill-rule="nonzero"></path>
                <path d="M258.3672,171.8682 C261.5886,179.1888 259.7616,194.9976 262.4622,208.6938 C262.4622,208.6938 253.5288,214.8846 242.8356,209.748 C241.7562,200.781 242.2308,190.5204 241.3488,178.248 L258.3672,171.8682 Z" id="Path" fill="#27427A" fill-rule="nonzero"></path>
                <path d="M254.352,211.596 C260.064,203.0574 257.46,176.0724 253.9782,172.7502 L258.0312,170.9022 C265.0452,182.3682 261.7356,194.5986 264.432,208.2822 C264.432,208.32 258.447,211.2936 254.352,211.596 Z" id="Path" fill="#213766" fill-rule="nonzero"></path>
                <path d="M242.0376,178.7688 C241.8234,175.4802 242.8482,175.35 242.8524,171.5532 C242.948628,169.431488 242.902324,167.305709 242.7138,165.1902 C242.4282,162.603 240.8742,160.6164 241.4874,157.479 C241.5882,155.757 243.5622,153.027 243.7176,151.7754 C243.9612,149.793 244.1376,147.9618 248.3376,146.0802 L250.1646,146.5002 C251.034656,146.701954 251.879776,146.999155 252.6846,147.3864 C261.1308,151.4772 262.983,151.704 262.3026,156.6768 C262.1598,159.2388 260.6688,157.2186 260.2026,158.907 C259.2618,162.1494 258.7746,166.1058 259.8876,171.8388 C260.1102,172.998 262.5798,176.799 261.7398,177.7608 C256.9728,183.1956 243.5412,182.2128 242.0376,178.7688 Z" id="Path" fill="#FFBE3B" fill-rule="nonzero"></path>
                <path d="" id="Path" fill="#FF5CAB" fill-rule="nonzero"></path>
                <path d="M257.2206,149.5704 C257.2206,149.5704 253.9656,157.0002 249.48,154.98 C244.9944,152.9598 248.3838,146.2398 248.3838,146.2398 C251.45558,146.981003 254.423763,148.099714 257.2206,149.5704 Z" id="Path" fill="#ED5353" fill-rule="nonzero"></path>
                <path d="M251.9244,150.9228 L251.622,150.9774 C251.159473,151.088616 250.671479,150.998529 250.279148,150.729502 C249.886816,150.460474 249.62693,150.037729 249.564,149.5662 L248.9214,144.144 C248.844636,143.122141 249.560931,142.210823 250.572,142.044 L250.8744,141.9852 C251.336927,141.873984 251.824921,141.964071 252.217252,142.233098 C252.609584,142.502126 252.86947,142.924871 252.9324,143.3964 L254.3604,148.4616 C254.4738,149.436 252.945,150.7338 251.9244,150.9228 Z" id="Path" fill="#ED5353" fill-rule="nonzero"></path>
                <path d="M256.3596,149.142 C256.3596,149.142 253.4742,156.8112 248.9802,154.6818 C245.4942,153.0312 248.1402,146.7018 248.1402,146.7018 L247.191,146.8656 C247.191,146.8656 244.0284,154.308 249.123,156.492 C253.6044,158.4114 257.544,149.7468 257.544,149.7468 L256.3596,149.142 Z" id="Path" fill="#FFFFFF" fill-rule="nonzero"></path>
                <path d="M249.3036,146.8824 C250.988061,146.769229 252.537668,145.921475 253.5414,144.564 C253.5414,144.564 251.769,148.0752 249.4842,148.4238 L249.3036,146.8824 Z" id="Path" fill="#BA4141" fill-rule="nonzero"></path>
                <path d="M261.7062,177.7692 C262.5462,176.8074 260.0766,173.0064 259.854,171.8472 C258.8502,166.6812 259.1484,162.96 259.9044,159.9024 L257.6364,157.5546 C257.2164,160.125 256.725,162.6492 255.8052,164.8416 C255.0324,165.4548 252.3906,167.4036 250.4754,166.9416 C250.4754,166.9416 253.4616,168.0546 255.2382,168.0504 L256.0362,180.915 C258.3,180.3354 260.3622,179.3148 261.7062,177.7692 Z" id="Path" fill="#F0A711" fill-rule="nonzero"></path>
                <path d="M242.7978,165.7026 L244.377,165.6396 C243.537,165.3582 242.7306,164.2662 242.4786,163.905 L242.403,163.7874 L242.7978,165.7026 Z" id="Path" fill="#F0A711" fill-rule="nonzero"></path>
                <path d="M254.31,135.9456 C253.47,134.5428 252.1596,134.2656 250.9206,135.0552 C249.732,134.547 248.2746,135.2358 247.1784,137.0292 C245.6454,139.5282 245.7336,143.0394 246.624,145.257 C247.1028,146.4582 247.6782,147.2982 250.5426,146.853 C252.483,146.5128 253.5834,145.9668 254.709,144.123 C256.2378,141.624 255.5322,137.9868 254.31,135.9456 Z" id="Path" fill="#ED5353" fill-rule="nonzero"></path>
                <path d="M247.5102,138.012 C250.8702,143.3796 252.8736,141.8928 252.9408,142.7202 L253.4826,144.9378 C253.8018,146.5926 255.486,145.9542 257.0862,146.5128 L257.0862,146.5128 C257.0862,146.5128 260.4462,138.7344 255.9942,135.4836 C251.5422,132.2328 245.427,135.2484 246.015,139.6248 L247.5102,138.012 Z" id="Path" fill="#233B6E" fill-rule="nonzero"></path>
                <path d="M254.6208,143.4468 C254.255456,144.053864 253.492015,144.289047 252.8484,143.9928 C252.558811,143.842642 252.347227,143.575849 252.266978,143.25967 C252.186729,142.94349 252.245472,142.608086 252.4284,142.338 C252.793744,141.730936 253.557185,141.495753 254.2008,141.792 C254.490389,141.942158 254.701973,142.208951 254.782222,142.52513 C254.862471,142.84131 254.803728,143.176714 254.6208,143.4468 Z" id="Path" fill="#ED5353" fill-rule="nonzero"></path>
                <path d="M247.8336,145.656 L247.8336,145.656 C247.3338,145.4502 246.939,144.6312 246.9516,143.829 L248.7702,144.5808 C248.7576,145.383 248.3376,145.866 247.8336,145.656 Z" id="Path" fill="#FFFFFF" fill-rule="nonzero"></path>
                <polygon id="Path" fill="#A3C3E8" fill-rule="nonzero" points="254.5872 197.904 216.9804 180.684 217.4844 151.7796 255.0912 169.0038"></polygon>
                <polygon id="Path" fill="#CEE5FF" fill-rule="nonzero" points="217.4844 151.7796 232.4742 177.0468 255.0912 169.0038"></polygon>
                <path d="M252.3822,184.4178 L252.3822,184.4178 C253.3776,185.157 254.7216,185.0898 255.3642,184.2624 L257.0148,180.6504 C257.6574,179.8104 257.1282,180.348 256.1328,179.6046 L256.1328,179.6046 C255.1332,178.8654 255.6204,177.9876 254.0328,179.3148 L252.2646,181.6878 C252.031892,181.992403 251.850318,182.332855 251.727,182.6958 C251.5254,183.3678 251.58,183.8382 252.3822,184.4178 Z" id="Path" fill="#ED5353" fill-rule="nonzero"></path>
                <path d="M262.7268,171.6918 L254.8014,179.025 L256.0866,180.9234 L266.5446,175.8834 C267.461783,175.444166 268.121783,174.602472 268.3296,173.607 L267.1452,168.3402 L262.7268,171.6918 Z" id="Path" fill="#ED5353" fill-rule="nonzero"></path>
                <path d="M257.4852,158.1468 L261.408,169.8438 C262.0128,172.7166 264.0414,172.221 265.188,172.0068 C266.868,171.6876 268.317,170.3268 267.855,168.3108 C266.574,162.729 263.3316,155.3202 261.7776,152.9892 C261.1056,151.977 259.9086,151.9224 258.3714,151.368 C258.1194,151.2756 258.5058,152.544 258.3042,152.7792 L258.3042,152.7792 C257.083854,154.290071 256.770957,156.340745 257.4852,158.1468 Z" id="Path" fill="#FFBE3B" fill-rule="nonzero"></path>
                <polygon id="Path" fill="#8DB0D9" fill-rule="nonzero" points="234.2172 176.4294 235.0866 178.2774 255.0912 169.0038"></polygon>
                <polygon id="Path" fill="#9FBFE3" fill-rule="nonzero" points="48.6612 171.759 6.8418 163.002 6.8418 134.0724 48.6612 142.8294"></polygon>
                <polygon id="Path" fill="#C2D8F0" fill-rule="nonzero" points="6.8418 134.0724 23.8644 155.9124 48.6612 142.8294"></polygon>
                <polygon id="Path" fill="#8DB0D9" fill-rule="nonzero" points="23.8644 155.9124 26.7078 157.1514 48.6612 142.8294"></polygon>
                <path d="M37.947,279.6486 C32.5962,276.9438 23.5914,277.0446 17.8374,279.8754 C16.953931,280.298674 16.1259081,280.82906 15.372,281.4546 C11.6214,280.371 6.5982,280.6818 3.192,282.3576 C-0.84,284.34 -1.0836,287.5026 2.6754,289.401 C6.2916,291.228 12.2682,291.228 16.317,289.4598 C16.569,289.611 16.8294,289.758 17.1066,289.8798 C22.4616,292.5846 31.4622,292.4796 37.2162,289.6488 C42.9702,286.818 43.2978,282.3492 37.947,279.6486 Z" id="Path" fill="#8288D4" fill-rule="nonzero" opacity="0.21" style="mix-blend-mode: multiply;"></path>
                <path d="M13.2804,184.254 C12.6462,182.6622 9.975,175.434 9.975,175.434 L4.3176,177.66 L8.0976,191.0076 L13.2804,184.254 Z" id="Path" fill="#ED5353" fill-rule="nonzero"></path>
                <path d="M12.4866,181.23 C12.4866,181.23 16.4724,191.0664 17.5266,194.0484 C18.5808,197.0304 10.9704,199.794 10.9704,199.794 L4.6704,184.7706 L12.4866,181.23 Z" id="Path" fill="#9AB9DB" fill-rule="nonzero"></path>
                <path d="M4.9182,280.14 L8.0052,280.5012 C10.038,279.7956 10.9746,279.0984 11.9238,280.1064 L12.1968,280.392 C12.6168,281.1228 12.516,282.3954 11.8398,282.9498 L6.8502,287.1498 C5.8128,287.6958 3.8388,287.2884 3.4902,285.7764 C3.4902,285.7764 3.1416,281.5134 3.6204,281.2824 C4.5654,280.8288 4.0866,280.5936 4.9182,280.14 Z" id="Path" fill="#27427A" fill-rule="nonzero"></path>
                <polygon id="Path" fill="#27427A" fill-rule="nonzero" points="12.1968 239.0136 23.8224 241.0422 23.8224 228.9 12.1968 226.8714"></polygon>
                <path d="M27.5142,282.3912 L31.6512,282.7398 C34.5912,282.0888 36.0612,281.4378 37.1112,282.387 L37.4136,282.6558 C37.8336,283.3404 37.359,284.5332 36.2964,285.0498 L28.4382,288.96 C26.8842,289.4682 25.1748,289.0566 25.0488,287.6412 C25.0488,287.6412 24.7296,283.6722 25.4436,283.4412 C26.88,283.017 26.271,282.7944 27.5142,282.3912 Z" id="Path" fill="#27427A" fill-rule="nonzero"></path>
                <path d="M29.7948,284.1594 C29.9124,285.8394 25.8636,286.1082 25.746,284.4408 L25.3638,279.0312 L29.4168,278.7456 L29.7948,284.1594 Z" id="Path" fill="#A8ACBA" fill-rule="nonzero"></path>
                <path d="M30.3156,279.2496 C29.0556,281.2782 25.5486,281.5344 24.6876,280.2996 C23.6166,272.6892 20.37,264.7596 22.4532,254.0034 L16.4136,222.3942 L30.8994,224.0742 L30.5004,258.0018 L30.3156,279.2496 Z" id="Path" fill="#27427A" fill-rule="nonzero"></path>
                <path d="M7.56,282.5466 C7.2954,284.1972 3.2886,283.5504 3.5532,281.904 L4.3932,276.549 L8.4,277.2 L7.56,282.5466 Z" id="Path" fill="#A8ACBA" fill-rule="nonzero"></path>
                <path d="M9.1728,277.8846 C7.4928,279.5646 4.011,279.027 3.4524,277.6284 C4.1412,269.976 2.7804,261.513 7.2324,251.5128 L8.5302,219.3576 L22.26,224.28 L14.1834,257.229 L9.1728,277.8846 Z" id="Path" fill="#27427A" fill-rule="nonzero"></path>
                <path d="M23.4066,186.9 C23.667,190.1802 21.7812,191.835 19.2066,190.6044 C16.632,189.3738 15.456,185.409 15.1956,182.133 C14.9352,178.857 17.0646,178.542 18.2616,178.7394 C21.0714,179.2014 23.142,183.6198 23.4066,186.9 Z" id="Path" fill="#ED5353" fill-rule="nonzero"></path>
                <path d="M27.552,185.5098 C27.4596,188.7942 24.4608,190.743 22.0206,189.2436 C19.5804,187.7442 17.6736,183.8592 17.766,180.5706 C17.8584,177.282 19.9122,175.8414 22.3524,177.3408 C24.7926,178.8402 27.6402,182.2212 27.552,185.5098 Z" id="Path" fill="#ED5353" fill-rule="nonzero"></path>
                <path d="M19.6854,195.6276 L19.3494,195.5394 C18.2132458,195.241146 17.5305587,194.082078 17.8206,192.9438 L19.4754,186.543 C19.773654,185.406846 20.9327215,184.724159 22.071,185.0142 L22.407,185.1024 C23.5448552,185.398786 24.2297645,186.558441 23.94,187.698 L23.2554,194.082 C22.9572,195.216 20.8194,195.9216 19.6854,195.6276 Z" id="Path" fill="#ED5353" fill-rule="nonzero"></path>
                <path d="M16.3338,188.4078 C16.3338,188.4078 16.947,190.6212 20.979,190.1676 C24.024,189.8274 21.819,184.6026 24.6288,183.309 C28.4088,181.5576 26.9094,177.87 25.2462,176.6646 C23.583,175.4592 21.4662,176.1564 18.8538,177.03 C16.0944,177.9498 12.3354,180.0876 16.3338,188.4078 Z" id="Path" fill="#27427A" fill-rule="nonzero"></path>
                <circle id="Oval" fill="#ED5353" fill-rule="nonzero" cx="24.0996" cy="184.653" r="1.449"></circle>
                <path d="M7.5138,226.2708 C7.0728,217.3374 8.5428,209.8908 8.1522,202.9146 C8.3034,189.5838 9.66,192.3894 14.0322,191.4906 L16.9722,191.1672 C17.8878,191.3394 18.732,191.7594 19.635,191.982 C23.415,192.906 25.8384,193.1118 28.5516,194.5818 C30.9708,195.8922 31.1094,199.3908 31.1052,202.3224 C31.7562,210.9114 31.9452,223.8432 32.0544,228.0852 C30.66,234.1542 9.8112,230.3784 7.5138,226.2708 Z" id="Path" fill="#9AB9DB" fill-rule="nonzero"></path>
                <path d="M24.6414,189.6426 L24.1122,188.958 C24.694184,189.228122 25.365616,189.228122 25.9476,188.958 C25.5811577,189.298764 25.1301289,189.535156 24.6414,189.6426 L24.6414,189.6426 Z" id="Path" fill="#BA4141" fill-rule="nonzero"></path>
                <path d="M32.0922,203.322 L29.8746,205.716 C27.2706,216.216 28.476,226.8714 24.2088,231.336 C26.8212,231.336 29.2152,230.9874 30.9834,229.6854 C31.08,229.6854 31.8948,228.9714 32.0166,227.661 L32.0922,203.322 Z" id="Path" fill="#82A1C7" fill-rule="nonzero"></path>
                <path d="M16.4388,190.9866 C16.4388,190.9866 15.729,192.9186 18.0054,193.641 C20.2818,194.3634 24.0408,193.0908 24.0408,193.0908 C24.0408,193.0908 21.5376,190.47 16.4388,190.9866 Z" id="Path" fill="#FFFFFF" fill-rule="nonzero"></path>
                <path d="M24.6246,185.64 L24.6246,185.64 C24.359392,185.672229 24.1176984,185.48487 24.0828,185.22 L23.2428,182.1498 C23.2092,181.8894 23.8938,182.0448 24.1584,182.007 L24.1584,182.007 C24.4188,181.9734 25.1748,181.734 25.2084,182.007 L25.0572,185.1024 C25.071324,185.231095 25.0336434,185.360119 24.9524776,185.460985 C24.8713119,185.561851 24.7533368,185.626263 24.6246,185.64 Z" id="Path" fill="#27427A" fill-rule="nonzero"></path>
                <path d="M7.3962,161.0658 C7.3962,161.0658 3.9186,173.943 4.3092,177.3954 C4.6998,180.8478 10.3488,176.6898 10.3488,176.6898 L11.0838,162.7878 L7.3962,161.0658 Z" id="Path" fill="#ED5353" fill-rule="nonzero"></path>
                <path d="M6.951,157.92 L6.951,157.92 C8.1018,157.3026 9.4374,157.5462 9.9246,158.4618 L10.8864,162.3342 C11.3736,163.254 10.9452,162.6576 9.7944,163.275 L9.7944,163.275 C8.6478,163.8966 8.9544,164.85 7.6482,163.3002 L6.3294,160.671 C6.1527202,160.330639 6.03485913,159.962856 5.9808,159.5832 C5.88,158.8776 6.048,158.4114 6.951,157.92 Z" id="Path" fill="#ED5353" fill-rule="nonzero"></path>
                <path d="M49.224,168.273 C49.224,168.273 48.1236,180.2934 46.4898,183.3594 C44.856,186.4254 39.858,182.0742 39.858,182.0742 L45.6246,168.6342 L49.224,168.273 Z" id="Path" fill="#ED5353" fill-rule="nonzero"></path>
                <path d="M49.224,163.9554 L49.224,163.9554 C48.0354,163.4178 46.704,163.7622 46.284,164.7114 L45.6078,168.6426 C45.1878,169.596 45.5742,168.966 46.767,169.5036 L46.767,169.5036 C47.9556,170.037 47.7078,171.0114 48.909,169.3692 L50.0304,166.6518 C50.1830191,166.298912 50.273939,165.922447 50.2992,165.5388 C50.358,164.8248 50.1606,164.3754 49.224,163.9554 Z" id="Path" fill="#ED5353" fill-rule="nonzero"></path>
                <path d="M40.4754,194.4894 C41.3154,192.9858 45.8136,183.9894 45.8136,183.9894 L40.4964,181.0494 L29.0304,196.1694 L40.4754,194.4894 Z" id="Path" fill="#ED5353" fill-rule="nonzero"></path>
                <path d="M31.92,206.4636 L42.042,193.1454 C44.7552,191.541 35.8092,184.9176 33.012,187.1394 C32.8356,187.278 24.0954,196.9044 24.0954,196.9044 C24.0954,196.9044 26.5524,206.892 31.92,206.4636 Z" id="Path" fill="#9AB9DB" fill-rule="nonzero"></path>
                <polygon id="Path" fill="#C2D8F0" fill-rule="nonzero" points="115.6092 291.4296 166.2822 262.1724 134.9502 244.083 103.3956 293.2062"></polygon>
                <polygon id="Path" fill="#C44545" fill-rule="nonzero" points="103.3956 291.4296 154.0686 262.1724 122.7366 244.083 72.0594 273.3402"></polygon>
                <polygon id="Path" fill="#B03F3F" fill-rule="nonzero" points="72.0594 273.3402 72.0594 274.8228 103.3956 293.2062 103.3956 291.4296"></polygon>
                <polygon id="Path" fill="#A13939" fill-rule="nonzero" points="154.0686 263.9868 103.3956 293.2062 103.3956 291.4296 154.0686 262.1724"></polygon>
                <polygon id="Path" fill="#C44545" fill-rule="nonzero" points="103.3956 287.427 154.0686 258.1698 122.7366 240.0804 72.0594 269.3334"></polygon>
                <polygon id="Path" fill="#B03F3F" fill-rule="nonzero" points="72.0594 269.3334 72.0594 270.8202 103.3956 289.2036 103.3956 287.427"></polygon>
                <polygon id="Path" fill="#A13939" fill-rule="nonzero" points="154.0686 259.9842 103.3956 289.2036 103.3956 287.427 154.0686 258.1698"></polygon>
                <polygon id="Path" fill="#ED5353" fill-rule="nonzero" points="103.3956 283.2018 154.0686 253.9446 122.7366 235.8552 72.0594 265.1124"></polygon>
                <polygon id="Path" fill="#B03F3F" fill-rule="nonzero" points="72.0594 265.1124 72.0594 266.5992 103.3956 284.9784 103.3956 283.2018"></polygon>
                <polygon id="Path" fill="#A13939" fill-rule="nonzero" points="154.0686 255.7632 103.3956 284.9784 103.3956 283.2018 154.0686 253.9446"></polygon>
                <polygon id="Path" fill="#D94C4C" fill-rule="nonzero" points="103.3956 283.2018 109.956 256.3554 119.3808 250.9206 154.0686 253.9446"></polygon>
                <polygon id="Path" fill="#F26D6D" fill-rule="nonzero" points="72.0594 265.1124 121.9638 260.715 122.7366 235.8552"></polygon>
                <polygon id="Path" fill="#D94C4C" fill-rule="nonzero" points="72.4206 265.1124 116.4618 265.5072 108.5994 261.8952"></polygon>
                <polygon id="Path" fill="#ED5353" fill-rule="nonzero" points="215.5986 256.4016 212.4108 249.711 208.2612 250.0932 210.5292 257.124"></polygon>
                <path d="M214.3134,241.6848 C214.3134,241.6848 216.3882,253.3734 208.4334,253.8312 C208.4334,253.8312 205.3002,254.9736 205.2456,246.7584 C205.191,238.5432 210.8904,239.6814 214.3134,241.6848 Z" id="Path" fill="#ED5353" fill-rule="nonzero"></path>
                <path d="M207.5556,253.8018 C208.848129,252.832296 209.875214,251.552413 210.5418,250.0806 L213.9858,252.1092 L215.4432,256.0698 L210.2814,256.6662 L209.5254,253.8522 C209.5254,253.8522 208.0932,254.1 207.5556,253.8018 Z" id="Path" fill="#ED5353" fill-rule="nonzero"></path>
                <path d="M213.4272,252.6468 L212.8602,252.6006 C212.3646,252.7224 211.4868,251.5632 211.2978,251.0802 C210.966,250.2402 209.8782,249.7866 209.5464,248.4972 C209.412,247.9848 208.362,248.2116 208.1142,247.2876 C207.6606,245.6076 205.527,243.9276 205.527,243.9276 C205.527,243.9276 204.5022,243.5748 204.7206,242.7138 C205.0398,241.4538 205.8,241.7058 206.6022,241.0002 C208.3956,239.4252 214.9224,238.7532 216.825,242.9784 C218.9922,247.8 213.4272,252.6468 213.4272,252.6468 Z" id="Path" fill="#233B6E" fill-rule="nonzero"></path>
                <path d="M208.4124,249.2154 C208.4544,250.0218 209.013,250.6686 209.6724,250.656 C210.3318,250.6434 210.8064,249.9714 210.7644,249.1608 C210.7224,248.3502 210.1638,247.7076 209.5044,247.7202 C208.845,247.7328 208.3704,248.4048 208.4124,249.2154 Z" id="Path" fill="#ED5353" fill-rule="nonzero"></path>
                <ellipse id="Oval" fill="#A8C4E5" fill-rule="nonzero" opacity="0.4" style="mix-blend-mode: multiply;" transform="translate(210.459109, 301.686954) rotate(-2.650000) translate(-210.459109, -301.686954) " cx="210.459109" cy="301.686954" rx="19.5594" ry="10.2312"></ellipse>
                <path d="M195.72,291.7194 C195.72,291.7194 195.7872,299.1744 214.4562,304.7058 L215.5902,302.9586 L199.794,287.2254 L195.72,291.7194 Z" id="Path" fill="#ED5353" fill-rule="nonzero"></path>
                <path d="M214.2588,305.34 L217.5936,306.873 C219.5802,308.6622 220.416,309.813 221.6424,309.5274 L221.9868,309.4476 C223.2132,309.1788 223.4148,308.0868 222.4362,307.02 L218.6184,301.35 C217.620394,300.305234 216.087198,299.972653 214.746,300.51 C214.746,300.51 214.011,300.846 213.7338,303.1392 C213.5742,304.5 213.4776,304.5 214.2588,305.34 Z" id="Path" fill="#213766" fill-rule="nonzero"></path>
                <path d="M191.289,292.6644 C191.289,292.6644 187.1562,300.3294 210.5082,308.7756 L212.1882,305.4954 L196.098,292.8702 L191.289,292.6644 Z" id="Path" fill="#ED5353" fill-rule="nonzero"></path>
                <path d="M221.7096,282.5298 L201.8688,283.6596 C199.625961,283.783412 197.472691,284.58119 195.6906,285.9486 C191.9316,288.8466 187.1646,294.0882 195.8376,297.5994 L213.3222,303.5046 C217.0728,304.8108 220.5084,304.7646 223.0578,301.4046 C225.3006,298.4646 225.3678,291.6522 223.86,288.645 L221.7096,282.5298 Z" id="Path" fill="#213766" fill-rule="nonzero"></path>
                <path d="M195.72,285.9948 C194.0946,287.2548 192.2886,288.9348 191.4486,290.7324 L202.02,294.2982 C204.8802,294.8274 207.48,294.252 209.496,291.5892 C210.9366,289.695 211.4742,286.2174 211.281,283.1892 L201.9066,283.7268 C199.662913,283.841824 197.5064,284.632399 195.72,285.9948 Z" id="Path" fill="#27427A" fill-rule="nonzero"></path>
                <path d="M210.42,309.0486 L213.7044,310.5606 C215.6658,312.3204 216.489,313.4376 217.6944,313.173 L218.0346,313.0974 C219.2442,312.8328 219.4416,311.7534 218.4798,310.7034 L216.9006,308.6454 C216.598064,308.240868 216.317654,307.820253 216.0606,307.3854 L214.725,305.1132 C213.739026,304.088824 212.228782,303.767814 210.9114,304.3026 C210.9114,304.3026 210.1848,304.6302 209.9118,306.894 C209.7606,308.1876 209.664,308.2086 210.42,309.0486 Z" id="Path" fill="#213766" fill-rule="nonzero"></path>
                <path d="M222.096,280.7952 C222.096,280.7952 222.0414,275.8896 222.2052,272.8572 C222.4488,268.4388 222.6546,260.4378 222.6546,260.4042 C222.6546,258.069 223.6332,256.6578 219.7146,254.6208 L215.46,253.5708 L209.9412,256.3554 C209.9412,256.3554 201.9612,262.2354 202.4946,267.645 C202.734,270.165 205.3296,274.0542 206.2956,277.5276 L205.275,284.34 C205.7328,289.5732 220.2396,286.9062 222.4698,282.6096 C222.936,281.7024 222.4068,280.8834 222.096,280.7952 Z" id="Path" fill="#176BC7" fill-rule="nonzero"></path>
                <path d="M206.8416,265.9398 C209.8068,271.3284 210.2814,285.8436 210.5376,287.2548 C207.6186,287.2548 205.2708,286.4148 205.0776,284.3652 L206.1024,277.5612 C205.1364,274.0878 202.5408,270.2112 202.3014,267.6786 C202.125,265.8432 202.9272,263.9532 204.0654,262.2564 L204.5568,261.9288 C204.5568,261.9288 205.38,263.2728 206.8416,265.9398 Z" id="Path" fill="#13549C" fill-rule="nonzero"></path>
                <path d="M194.4348,272.4246 C189.8778,268.3548 185.346,266.28 182.9394,262.92 L181.4022,265.0452 C181.4022,265.0452 191.5914,279.5856 194.2206,278.0232 C198.1476,275.6964 194.4348,272.4246 194.4348,272.4246 Z" id="Path" fill="#ED5353" fill-rule="nonzero"></path>
                <path d="M207.5304,263.8524 C207.5304,263.8524 197.9124,276.8724 195.0648,277.1244 C192.2172,277.3764 192.9018,272.5044 192.9018,272.5044 L203.889,261.5172 L207.5304,263.8524 Z" id="Path" fill="#ED5353" fill-rule="nonzero"></path>
                <path d="M197.2572,267.4938 L196.1106,268.8 C196.834419,270.807786 198.509605,272.323956 200.5794,272.8446 L201.7722,271.5594 L197.2572,267.4938 Z" id="Path" fill="#FFFFFF" fill-rule="nonzero"></path>
                <path d="M208.8618,257.4348 C206.215541,258.297334 203.892022,259.940049 202.1964,262.1472 C200.7726,264.0918 197.2026,267.6408 197.2026,267.6408 C197.064,269.9844 198.5844,271.1982 202.3308,272.6808 L214.326,259.0224 L208.8618,257.4348 Z" id="Path" fill="#176BC7" fill-rule="nonzero"></path>
                <path d="M208.6266,257.4348 L209.832,255.1542 L218.61,253.2348 C218.61,253.2348 217.7994,257.1828 213.8724,256.5948 C211.596,256.2546 208.6266,257.4348 208.6266,257.4348 Z" id="Path" fill="#FFFFFF" fill-rule="nonzero"></path>
                <path d="M181.6668,259.7994 C181.6248,260.1522 182.0616,260.9796 182.1666,261.5046 C182.335451,262.417778 182.425383,263.343796 182.4354,264.2724 C182.4354,264.2724 183.582,265.251 184.233,264.138 C184.884,263.025 183.4266,261.1602 183.4266,261.1602 L182.2422,258.8208 C182.2422,258.8208 181.8138,258.489 181.6668,259.7994 Z" id="Path" fill="#ED5353" fill-rule="nonzero"></path>
                <path d="M178.3278,261.4122 C178.2564,260.9502 178.1808,260.442 178.1808,260.442 C178.052556,259.670509 178.25874,258.880899 178.7478,258.2706 L180.3984,260.148 C181.4106,260.778 182.2296,261.3576 182.364,261.9666 L182.9436,262.2228 C183.027601,262.258893 183.085464,262.337651 183.0948,262.4286 L183.4266,265.104 C183.440588,265.203136 183.396501,265.301512 183.313198,265.357047 C183.229895,265.412582 183.12213,265.415441 183.036,265.3644 C182.8428,265.2384 182.5698,265.0452 182.2506,264.8142 L182.0574,265.7214 C182.0574,265.7214 179.7642,263.5668 178.9242,262.563 L178.8948,262.5294 C178.597832,262.222436 178.400244,261.833115 178.3278,261.4122 Z" id="Path" fill="#ED5353" fill-rule="nonzero"></path>
                <path d="M218.5596,310.6698 L216.9804,308.6118 C216.675605,308.20887 216.395107,307.788123 216.1404,307.3518 L214.8048,305.0838 C213.914467,304.162307 212.590784,303.802768 211.3566,304.1472 C211.4112,304.3152 211.2516,303.9918 211.3566,304.1472 C211.1046,304.7184 212.5746,306.9066 214.4646,309.1074 L217.3206,313.0638 L217.4004,313.173 C217.528716,313.178354 217.657186,313.16706 217.7826,313.1394 L218.1228,313.0638 C219.3198,312.7992 219.5214,311.7198 218.5596,310.6698 Z" id="Path" fill="#172747" fill-rule="nonzero"></path>
                <polygon id="Path" fill="#9FBFE3" fill-rule="nonzero" points="128.9568 141.435 89.88 156.6306 61.32 138.8856 108.5364 120.5232 128.9568 133.2114"></polygon>
                <polygon id="Path" fill="#C2D8F0" fill-rule="nonzero" points="61.32 138.8856 99.2082 138.5748 108.5364 120.5232"></polygon>
                <path d="M128.940087,122.6064 C128.946445,119.09099 128.594628,115.584074 127.89,112.14 L86.8728,121.5102 L108.633,141.6702 L128.940087,137.0544 L128.940087,122.6064 Z" id="Path" fill="#E0EFFF" fill-rule="nonzero"></path>
                <path d="M128.7888,120.54 L123.9252,125.6472 L86.8728,121.5396 L127.89,112.14 C127.89,112.14 129.36,117.2052 128.7888,120.54 Z" id="Path" fill="#FAFCFF" fill-rule="nonzero"></path>
                <path d="M61.32,131.46 L61.32,97.671 C61.32,77.448 83.2146,64.806 100.7286,74.9196 L103.4922,76.5156 C119.557314,85.7897974 129.453557,102.930904 129.4524,121.4808 L129.4524,169.68" id="Path" stroke="#C2D8F0" stroke-width="0.84" stroke-linecap="round" stroke-linejoin="round"></path>
                <path d="M213.4734,242.7012 C213.4734,242.7012 217.9926,238.3542 220.7142,244.8012 C223.4358,251.2482 220.5924,258.0564 225.1158,262.143 C225.1158,262.143 216.4176,261.1434 216.1488,255.5154 C215.88,249.8874 216.9888,245.3052 213.9018,244.755 C210.8148,244.2048 213.4734,242.7012 213.4734,242.7012 Z" id="Path" fill="#233B6E" fill-rule="nonzero"></path>
                <polygon id="Path" fill="#FFFFFF" fill-rule="nonzero" points="189.9576 102.4884 230.5968 95.8314 204.9936 110.544"></polygon>
                <polygon id="Path" fill="#FFFFFF" fill-rule="nonzero" points="230.5968 95.8314 209.8152 112.9254 222.5832 121.0272"></polygon>
                <polygon id="Path" fill="#BED5F0" fill-rule="nonzero" points="204.9936 110.544 206.8542 120.2166 209.8152 112.9254 230.5968 95.8314"></polygon>
                <polygon id="Path" fill="#A3C3E8" fill-rule="nonzero" points="206.8542 120.2166 214.2336 115.731 209.8152 112.9254"></polygon>
                <path d="M150.1878,177.24 C150.116274,177.259259 150.040926,177.259259 149.9694,177.24 C149.160929,176.957889 148.368714,176.631188 147.5964,176.2614 C147.406605,176.150119 147.334852,175.91123 147.431919,175.713786 C147.528986,175.516343 147.761972,175.42727 147.966,175.5096 C148.711023,175.860801 149.473632,176.173415 150.2508,176.4462 C150.431689,176.508479 150.547634,176.685131 150.53281,176.875866 C150.517986,177.066601 150.376139,177.223217 150.1878,177.2568 L150.1878,177.24 Z" id="Path" fill="#FFFFFF" fill-rule="nonzero"></path>
                <path d="M164.892,178.6092 C164.741948,178.63921 164.587285,178.586889 164.486269,178.471946 C164.385254,178.357003 164.353233,178.1969 164.402269,178.051946 C164.451305,177.906993 164.573948,177.79921 164.724,177.7692 C166.312039,177.422609 167.844267,176.857211 169.2768,176.0892 C169.408845,176.017925 169.568885,176.022511 169.696633,176.101228 C169.824381,176.179945 169.90043,176.320836 169.896133,176.470828 C169.891836,176.62082 169.807845,176.757126 169.6758,176.8284 C168.172336,177.62952 166.565318,178.218901 164.9004,178.5798 L164.892,178.6092 Z M159.9402,179.088 L159.8562,179.088 C158.163469,179.05703 156.476837,178.875717 154.8162,178.5462 C154.666148,178.51694 154.543105,178.409851 154.493419,178.265273 C154.443733,178.120694 154.474954,177.960591 154.575319,177.845272 C154.675685,177.729954 154.829948,177.67694 154.98,177.7062 C156.586965,178.02316 158.218594,178.19883 159.8562,178.2312 C160.08816,178.2312 160.2762,178.41924 160.2762,178.6512 C160.288729,178.860196 160.145417,179.046501 159.9402,179.088 Z M173.5524,173.9514 C173.414669,173.977762 173.272867,173.933646 173.1744,173.8338 C173.094889,173.754938 173.050165,173.647588 173.050165,173.5356 C173.050165,173.423612 173.094889,173.316262 173.1744,173.2374 C174.335887,172.093046 175.356701,170.814209 176.2152,169.428 C176.339106,169.234527 176.595472,169.176517 176.7906,169.2978 C176.885432,169.356707 176.95291,169.450945 176.978128,169.559698 C177.003346,169.668451 176.984229,169.782769 176.925,169.8774 C176.030837,171.317812 174.969245,172.647269 173.7624,173.838 C173.706866,173.897982 173.633014,173.937862 173.5524,173.9514 L173.5524,173.9514 Z M178.8906,165.6228 C178.811346,165.63515 178.730239,165.626459 178.6554,165.5976 C178.441167,165.510281 178.337885,165.266159 178.4244,165.0516 L178.521,164.8122 C179.088,163.3674 179.6256,161.8722 180.117,160.3938 C180.190067,160.173438 180.427938,160.054033 180.6483,160.1271 C180.868662,160.200167 180.988067,160.438038 180.915,160.6584 C180.4194,162.1578 179.8776,163.6614 179.3022,165.1188 L179.2014,165.3666 C179.148178,165.499347 179.031063,165.595887 178.8906,165.6228 Z M182.0196,156.1644 C181.957418,156.178759 181.892782,156.178759 181.8306,156.1644 C181.723062,156.134953 181.631647,156.063955 181.576499,155.967052 C181.521351,155.870149 181.506997,155.755295 181.5366,155.6478 C181.9566,154.1442 182.3262,152.565 182.7168,150.8262 C182.776914,150.611661 182.994092,150.481395 183.211666,150.529373 C183.429241,150.577351 183.571491,150.786875 183.5358,151.0068 C183.1452,152.7624 182.7546,154.3668 182.3472,155.8662 C182.30356,156.01979 182.176605,156.135352 182.0196,156.1644 L182.0196,156.1644 Z M184.2288,146.4498 C184.175932,146.458206 184.122068,146.458206 184.0692,146.4498 C183.960026,146.427542 183.86417,146.362816 183.802729,146.269867 C183.741288,146.176919 183.719299,146.063365 183.7416,145.9542 L183.8424,145.4502 C184.1532,143.9214 184.443,142.4766 184.758,141.0654 C184.809031,140.83344 185.03844,140.686769 185.2704,140.7378 C185.50236,140.788831 185.649031,141.01824 185.598,141.2502 C185.2872,142.6488 184.9974,144.0894 184.6866,145.614 L184.5858,146.1222 C184.548133,146.295954 184.405143,146.427168 184.2288,146.4498 Z M186.4884,136.7478 C186.42199,136.762369 186.35321,136.762369 186.2868,136.7478 C186.065355,136.67928 185.941291,136.44431 186.0096,136.2228 C186.492488,134.611232 187.100538,133.039852 187.8282,131.523 C187.932821,131.32109 188.179138,131.239121 188.383883,131.338081 C188.588627,131.437041 188.677422,131.68098 188.5842,131.8884 C187.87694,133.366718 187.284393,134.897229 186.8118,136.4664 C186.762185,136.614637 186.634349,136.723055 186.48,136.7478 L186.4884,136.7478 Z M190.911,127.8942 C190.737055,127.933195 190.557444,127.858137 190.462965,127.706972 C190.368487,127.555806 190.379725,127.361467 190.491,127.2222 C191.538524,125.897915 192.719322,124.684747 194.0148,123.6018 C194.193409,123.452186 194.459486,123.475691 194.6091,123.6543 C194.758714,123.832909 194.735209,124.098986 194.5566,124.2486 C193.302591,125.291585 192.160993,126.462743 191.1504,127.743 C191.090507,127.819591 191.005896,127.873029 190.911,127.8942 L190.911,127.8942 Z" id="Shape" fill="#FFFFFF" fill-rule="nonzero"></path>
                <path d="M198.4962,121.4304 C198.296329,121.468062 198.098194,121.3571 198.025875,121.167004 C197.953556,120.976908 198.027837,120.76231 198.2022,120.6576 C198.9036,120.2376 199.6512,119.8176 200.424,119.4186 C200.557212,119.34457 200.720073,119.348509 200.84955,119.428893 C200.979027,119.509277 201.0548,119.653491 201.047543,119.805719 C201.040286,119.957946 200.951137,120.094298 200.8146,120.162 C200.0544,120.5568 199.3194,120.9642 198.6348,121.3758 C198.592628,121.402914 198.545534,121.421467 198.4962,121.4304 L198.4962,121.4304 Z" id="Path" fill="#FFFFFF" fill-rule="nonzero"></path>
            </g>
        </g>
    </g>
</svg>