<?xml version="1.0" encoding="UTF-8"?>
<svg width="239px" height="236px" viewBox="0 0 239 236" version="1.1" xmlns="http://www.w3.org/2000/svg" xmlns:xlink="http://www.w3.org/1999/xlink">
    <!-- Generator: Sketch 63.1 (92452) - https://sketch.com -->
    <title>Unsubscribe email empty - Tablet</title>
    <desc>Created with Sketch.</desc>
    <defs>
        <linearGradient x1="-0.00313528766%" y1="50.0013257%" x2="99.9968647%" y2="50.0013257%" id="linearGradient-1">
            <stop stop-color="#2E90FE" offset="8%"></stop>
            <stop stop-color="#2077E7" offset="64%"></stop>
            <stop stop-color="#1A6DDE" offset="100%"></stop>
        </linearGradient>
    </defs>
    <g id="Responsive" stroke="none" stroke-width="1" fill="none" fill-rule="evenodd">
        <g id="21.1---responsive" transform="translate(-1996.000000, -411.000000)">
            <g id="Group-2" transform="translate(1731.000000, 279.000000)">
                <g id="Unsubscribe-email-empty---Tablet" transform="translate(265.000000, 132.000000)">
                    <path d="M40.5094907,64.4975652 C38.6244482,58.4450083 36.377061,52.5113128 33.7795031,46.7286211 C28.9633789,36.2782609 26.168472,18.9979627 49.575354,5.79711801 C85.5611677,-14.5001988 75.3329193,26.0500124 108.671901,13.2008447 C142.010882,0.351677019 177.756075,-0.136968944 182.501863,29.5852919 C187.247652,59.3075528 187.684472,73.7670311 205.353466,78.8830062 C241.405913,89.318559 256.157839,145.031602 205.912447,169.075205 C155.667056,193.118807 143.613789,160.079677 121.880149,161.049565 C100.146509,162.019453 109.293814,84.443205 72.6453665,82.6292919 C50.2787081,81.5261366 42.8823851,71.871677 40.5094907,64.4975652 Z" id="Path" fill="#C2D8F0" fill-rule="nonzero"></path>
                    <path d="M151.191503,153.049839 C143.383544,148.321709 133.663853,148.050312 125.604224,152.335379 L62.3689938,186.440646 L44.4223602,196.039578 C32.7318758,202.292025 31.9063602,218.706087 42.8823851,226.605863 L42.8823851,226.605863 C57.6306087,237.219106 76.9765466,238.673938 92.7279752,230.348447 L114.198783,219.002236 L164.732919,189.535404 C175.557168,183.223727 175.375776,167.527826 164.410857,160.96072 L151.191503,153.049839 Z" id="Path" fill="#C2D8F0" fill-rule="nonzero"></path>
                    <path d="M107.998161,203.71354 L107.998161,203.71354 C102.49237,203.71354 98.0290435,199.250214 98.0290435,193.744422 L98.0290435,67.6108323 L117.970981,67.6108323 L117.970981,193.744422 C117.968937,199.250813 113.504552,203.71354 107.998161,203.71354 Z" id="Path" fill="#0D3B6E" fill-rule="nonzero"></path>
                    <polygon id="Path" fill="#0A2B52" fill-rule="nonzero" points="97.555205 146.049615 98.0290435 67.6108323 117.970981 67.6108323 117.970981 146.049615"></polygon>
                    <path d="M138.660696,27.1087453 L136.228571,25.7057391 C128.084472,21.2635031 118.94087,22.566559 110.530236,27.4048944 L110.530236,27.4048944 L43.4746832,65.8931677 L89.7479752,150.547379 L158.021441,111.255801 C160.199963,110.001559 161.543496,107.680013 161.545615,105.166236 L161.545615,66.7445963 C161.54414,50.3935242 152.820758,35.2849425 138.660696,27.1087453 L138.660696,27.1087453 Z" id="Path" fill="url(#linearGradient-1)" fill-rule="nonzero"></path>
                    <path d="M89.7294658,150.551081 L29.6778385,115.868323 L29.6778385,87.0678261 C29.6778385,69.243354 48.9756522,58.1007453 64.4124224,67.0148323 L66.8482484,68.4215404 C81.0079762,76.5957812 89.730486,91.7038851 89.7294658,108.053689 L89.7294658,150.551081 Z" id="Path" fill="#13549C" fill-rule="nonzero"></path>
                    <path d="M84.361764,86.5606708 L29.6778385,115.868323 L89.729466,150.539975 L89.729466,108.064795 C89.7300761,100.565117 87.886737,93.180319 84.361764,86.5606708 Z" id="Path" fill="#1A77DE" fill-rule="nonzero"></path>
                    <path d="M29.6778385,115.868323 L10.6576646,127.125689 C-3.49455901,135.488199 -3.56119255,155.948398 10.539205,164.407155 L10.539205,164.407155 C27.4305835,174.55505 48.5125458,174.679955 65.5229814,164.732919 L89.7442733,150.56959 L89.7442733,146.771478 L29.6778385,115.868323 Z" id="Path" fill="#1257A1" fill-rule="nonzero"></path>
                    <path d="M30.1146584,115.868323 L10.6502609,125.863354 C-3.50196273,134.233267 -3.56119255,152.146584 10.539205,160.60164 L10.539205,160.60164 C27.4314061,170.733962 48.5037605,170.851748 65.5081739,160.908894 L89.7294658,146.745565 L30.1146584,115.868323 Z" id="Path" fill="#1563B8" fill-rule="nonzero"></path>
                    <ellipse id="Oval" fill="#0D3B6E" fill-rule="nonzero" transform="translate(123.301901, 111.839079) rotate(-59.430000) translate(-123.301901, -111.839079) " cx="123.301901" cy="111.839079" rx="7.68877019" ry="4.89386335"></ellipse>
                    <ellipse id="Oval" fill="#FFFFFF" fill-rule="nonzero" transform="translate(126.019576, 112.912629) rotate(-59.430000) translate(-126.019576, -112.912629) " cx="126.019576" cy="112.912629" rx="7.68877019" ry="4.89386335"></ellipse>
                    <polygon id="Path" fill="#C24444" fill-rule="nonzero" points="123.657043 56.645913 141.559255 47.654087 141.559255 60.6513292 123.657043 70.8499627"></polygon>
                    <path d="M125.863354,115.868323 L125.863354,115.868323 C124.636664,115.868323 123.642236,114.873895 123.642236,113.647205 L123.642236,53.965764 C123.642236,52.7390744 124.636664,51.744646 125.863354,51.744646 L125.863354,51.744646 C127.090044,51.744646 128.084472,52.7390744 128.084472,53.965764 L128.084472,113.673118 C128.070278,114.889676 127.079995,115.868323 125.863354,115.868323 Z" id="Path" fill="#0D3B6E" fill-rule="nonzero"></path>
                    <path d="M123.642236,57.378882 L123.69036,57.404795 C126.387597,59.0908365 129.785183,59.1885171 132.574832,57.6602236 L144.665118,51.0264845 L144.539255,64.856646 L132.537814,71.6939876 C129.77412,73.2662361 126.376872,73.2237705 123.653342,71.5829317 L123.653342,71.5829317 L123.642236,57.378882 Z" id="Path" fill="#ED5353" fill-rule="nonzero"></path>
                    <path d="M30.1146584,115.868323 L30.1146584,86.0868323 C30.1146584,68.2623602 49.412472,57.1197516 64.8492422,66.0338385 L67.2850683,67.4405466 C81.4447961,75.6147874 90.1673059,90.7228913 90.1662857,107.072696 L90.1662857,149.55528" id="Path" stroke="#C2D8F0" stroke-width="1.6" stroke-linecap="round" stroke-linejoin="round"></path>
                    <rect id="Rectangle" fill="#D8D8D8" opacity="0.463425409" style="mix-blend-mode: saturation;" x="0" y="0" width="238.4" height="236"></rect>
                </g>
            </g>
        </g>
    </g>
</svg>