<?xml version="1.0" encoding="UTF-8"?>
<svg width="298px" height="295px" viewBox="0 0 298 295" version="1.1" xmlns="http://www.w3.org/2000/svg" xmlns:xlink="http://www.w3.org/1999/xlink">
    <!-- Generator: Sketch 63.1 (92452) - https://sketch.com -->
    <title>Unsubscribe email empty</title>
    <desc>Created with Sketch.</desc>
    <defs>
        <linearGradient x1="-0.00313528766%" y1="50.0013257%" x2="99.9968647%" y2="50.0013257%" id="linearGradient-1">
            <stop stop-color="#2E90FE" offset="8%"></stop>
            <stop stop-color="#2077E7" offset="64%"></stop>
            <stop stop-color="#1A6DDE" offset="100%"></stop>
        </linearGradient>
    </defs>
    <g id="F034---Unsubscribe" stroke="none" stroke-width="1" fill="none" fill-rule="evenodd">
        <g id="21.1" transform="translate(-966.000000, -365.000000)">
            <g id="Unsubscribe-email-empty" transform="translate(966.000000, 365.000000)">
                <path d="M50.6368634,80.6219565 C48.2805602,73.0562604 45.4713262,65.639141 42.2243789,58.4107764 C36.2042236,45.3478261 32.7105901,23.7474534 61.9691925,7.24639752 C106.95146,-18.1252484 94.1661491,32.5625155 135.839876,16.5010559 C177.513602,0.439596273 222.195093,-0.17121118 228.127329,36.9816149 C234.059565,74.134441 234.60559,92.2087888 256.691832,98.6037578 C301.757391,111.648199 320.197298,181.289503 257.390559,211.344006 C194.58382,241.398509 179.517236,200.099596 152.350186,201.311957 C125.183137,202.524317 136.617267,105.554006 90.8067081,103.286615 C62.8483851,101.907671 53.6029814,89.8395963 50.6368634,80.6219565 Z" id="Path" fill="#C2D8F0" fill-rule="nonzero"></path>
                <path d="M188.989379,191.312298 C179.22943,185.402136 167.079817,185.062889 157.00528,190.419224 L77.9612422,233.050807 L55.5279503,245.049472 C40.9148447,252.865031 39.8829503,273.382609 53.6029814,283.257329 L53.6029814,283.257329 C72.0382609,296.523882 96.2206832,298.342422 115.909969,287.935559 L142.748478,273.752795 L205.916149,236.919255 C219.44646,229.029658 219.21972,209.409783 205.513571,201.200901 L188.989379,191.312298 Z" id="Path" fill="#C2D8F0" fill-rule="nonzero"></path>
                <path d="M134.997702,254.641925 L134.997702,254.641925 C128.115462,254.641925 122.536304,249.062768 122.536304,242.180528 L122.536304,84.5135404 L147.463727,84.5135404 L147.463727,242.180528 C147.461172,249.063516 141.880691,254.641925 134.997702,254.641925 Z" id="Path" fill="#0D3B6E" fill-rule="nonzero"></path>
                <polygon id="Path" fill="#0A2B52" fill-rule="nonzero" points="121.944006 182.562019 122.536304 84.5135404 147.463727 84.5135404 147.463727 182.562019"></polygon>
                <path d="M173.32587,33.8859317 L170.285714,32.1321739 C160.10559,26.5793789 148.676087,28.2081988 138.162795,34.256118 L138.162795,34.256118 L54.343354,82.3664596 L112.184969,188.184224 L197.526801,139.069752 C200.249953,137.501949 201.92937,134.600016 201.932019,131.457795 L201.932019,83.4307453 C201.930175,62.9919052 191.025947,44.1061782 173.32587,33.8859317 L173.32587,33.8859317 Z" id="Path" fill="url(#linearGradient-1)" fill-rule="nonzero"></path>
                <path d="M112.161832,188.188851 L37.0972981,144.835404 L37.0972981,108.834783 C37.0972981,86.5541925 61.2195652,72.6259317 80.515528,83.7685404 L83.5603106,85.5269255 C101.25997,95.7447265 112.163108,114.629856 112.161832,135.067112 L112.161832,188.188851 Z" id="Path" fill="#13549C" fill-rule="nonzero"></path>
                <path d="M105.452205,108.200839 L37.0972981,144.835404 L112.161832,188.174969 L112.161832,135.080994 C112.162595,125.706396 109.858421,116.475399 105.452205,108.200839 Z" id="Path" fill="#1A77DE" fill-rule="nonzero"></path>
                <path d="M37.0972981,144.835404 L13.3220807,158.907112 C-4.36819876,169.360248 -4.45149068,194.935497 13.1740062,205.508944 L13.1740062,205.508944 C34.2882294,218.193813 60.6406822,218.349944 81.9037267,205.916149 L112.180342,188.211988 L112.180342,183.464348 L37.0972981,144.835404 Z" id="Path" fill="#1257A1" fill-rule="nonzero"></path>
                <path d="M37.643323,144.835404 L13.3128261,157.329193 C-4.37745342,167.791584 -4.45149068,190.18323 13.1740062,200.75205 L13.1740062,200.75205 C34.2892577,213.417452 60.6297007,213.564685 81.8852174,201.136118 L112.161832,183.431957 L37.643323,144.835404 Z" id="Path" fill="#1563B8" fill-rule="nonzero"></path>
                <ellipse id="Oval" fill="#0D3B6E" fill-rule="nonzero" transform="translate(154.127376, 139.798849) rotate(-59.430000) translate(-154.127376, -139.798849) " cx="154.127376" cy="139.798849" rx="9.61096273" ry="6.11732919"></ellipse>
                <ellipse id="Oval" fill="#FFFFFF" fill-rule="nonzero" transform="translate(157.524470, 141.140786) rotate(-59.430000) translate(-157.524470, -141.140786) " cx="157.52447" cy="141.140786" rx="9.61096273" ry="6.11732919"></ellipse>
                <polygon id="Path" fill="#C24444" fill-rule="nonzero" points="154.571304 70.8073913 176.949068 59.5676087 176.949068 75.8141615 154.571304 88.5624534"></polygon>
                <path d="M157.329193,144.835404 L157.329193,144.835404 C155.795831,144.835404 154.552795,143.592368 154.552795,142.059006 L154.552795,67.457205 C154.552795,65.923843 155.795831,64.6808075 157.329193,64.6808075 L157.329193,64.6808075 C158.862555,64.6808075 160.10559,65.923843 160.10559,67.457205 L160.10559,142.091398 C160.087847,143.612095 158.849994,144.835404 157.329193,144.835404 Z" id="Path" fill="#0D3B6E" fill-rule="nonzero"></path>
                <path d="M154.552795,71.7236025 L154.61295,71.7559938 C157.984496,73.8635457 162.231479,73.9856464 165.71854,72.0752795 L180.831398,63.7831056 L180.674068,81.0708075 L165.672267,89.6174845 C162.21765,91.5827952 157.97109,91.5297132 154.566677,89.4786646 L154.566677,89.4786646 L154.552795,71.7236025 Z" id="Path" fill="#ED5353" fill-rule="nonzero"></path>
                <path d="M37.643323,144.835404 L37.643323,107.60854 C37.643323,85.3279503 61.7655901,71.3996894 81.0615528,82.5422981 L84.1063354,84.3006832 C101.805995,94.5184843 112.709132,113.403614 112.707857,133.84087 L112.707857,186.944099" id="Path" stroke="#C2D8F0" stroke-width="2" stroke-linecap="round" stroke-linejoin="round"></path>
                <rect id="Rectangle" fill="#D8D8D8" opacity="0.463425409" style="mix-blend-mode: saturation;" x="0" y="0" width="298" height="295"></rect>
            </g>
        </g>
    </g>
</svg>