<?xml version="1.0" encoding="UTF-8"?>
<svg width="215px" height="226px" viewBox="0 0 215 226" version="1.1" xmlns="http://www.w3.org/2000/svg" xmlns:xlink="http://www.w3.org/1999/xlink">
    <!-- Generator: Sketch 63.1 (92452) - https://sketch.com -->
    <title>Unsubscribe email with people - Mobile</title>
    <desc>Created with Sketch.</desc>
    <defs>
        <linearGradient x1="-0.0031356809%" y1="49.9998747%" x2="100.009407%" y2="49.9998747%" id="linearGradient-1">
            <stop stop-color="#2E90FE" offset="8%"></stop>
            <stop stop-color="#2077E7" offset="64%"></stop>
            <stop stop-color="#1A6DDE" offset="100%"></stop>
        </linearGradient>
    </defs>
    <g id="Responsive" stroke="none" stroke-width="1" fill="none" fill-rule="evenodd">
        <g id="21.0---responsive" transform="translate(-2724.000000, -409.000000)">
            <g id="Group-3" transform="translate(2652.000000, 277.000000)">
                <g id="Unsubscribe-email-with-people---Mobile" transform="translate(72.000000, 132.000000)">
                    <path d="M52.641792,52.687152 C51.1019273,47.7429036 49.2660684,42.8957513 47.14416,38.171952 C43.21296,29.632176 40.926816,15.531264 60.047568,4.74768 C89.443872,-11.832912 81.085536,21.291984 108.322704,10.79568 C135.559872,0.299376 164.756592,-0.09072 168.636384,24.179904 C172.516176,48.450528 172.869984,60.271344 187.303536,64.450512 C216.754272,72.975168 228.804912,118.486368 187.76016,138.127248 C146.715408,157.768128 136.869264,130.778928 119.11536,131.571216 C101.361456,132.363504 108.83376,68.99256 78.89616,67.5108 C60.622128,66.597552 54.577152,58.71096 52.641792,52.687152 Z" id="Path" fill="#C2D8F0" fill-rule="nonzero"></path>
                    <path d="M146.730528,181.222272 L153.806688,187.572672 L149.334192,189.477792 C149.334192,189.477792 144.6984,182.247408 144.87984,181.715184 C145.06128,181.18296 146.730528,181.222272 146.730528,181.222272 Z" id="Path" fill="#ED5353" fill-rule="nonzero"></path>
                    <path d="M146.9664,181.325088 C146.9664,181.325088 145.784016,178.482528 144.701424,177.956352 C143.906112,177.572304 142.300368,177.351552 141.505056,177.269904 C141.447413,177.260558 141.390826,177.291721 141.367909,177.345432 C141.344993,177.399143 141.361653,177.461558 141.408288,177.496704 L142.41528,178.225488 L141.072624,178.1136 L140.94864,179.075232 C140.902198,179.484806 141.18116,179.860281 141.586704,179.934048 L143.703504,180.345312 C143.703504,180.345312 143.262,181.134576 145.418112,182.43792 C145.901952,182.743344 146.9664,181.325088 146.9664,181.325088 Z" id="Path" fill="#ED5353" fill-rule="nonzero"></path>
                    <path d="M125.021232,182.92176 C125.021232,182.92176 131.716368,184.799664 137.83392,204.764112 L150.434928,196.457184 C150.434928,196.457184 151.723152,182.171808 138.641328,174.094704 L125.021232,182.92176 Z" id="Path" fill="#C2D8F0" fill-rule="nonzero"></path>
                    <path d="M143.056368,125.024256 C136.681951,121.167612 128.749432,120.945956 122.1696,124.440624 L70.495488,152.300736 L55.835136,160.141968 C46.285344,165.249504 45.610992,178.65792 54.577152,185.111136 L54.577152,185.111136 C66.624768,193.780944 82.428192,194.969376 95.295312,188.1684 L112.834512,178.89984 L154.10304,154.8288 C162.942192,149.67288 162.79704,136.85112 153.839952,131.486544 L143.056368,125.024256 Z" id="Path" fill="#C2D8F0" fill-rule="nonzero"></path>
                    <path d="M107.772336,166.41072 L107.772336,166.41072 C103.274732,166.41072 99.628704,162.764692 99.628704,158.267088 L99.628704,55.230336 L115.915968,55.230336 L115.915968,158.267088 C115.915968,162.764692 112.26994,166.41072 107.772336,166.41072 L107.772336,166.41072 Z" id="Path" fill="#0D3B6E" fill-rule="nonzero"></path>
                    <polygon id="Path" fill="#0A2B52" fill-rule="nonzero" points="99.241632 119.305872 99.628704 55.230336 115.915968 55.230336 115.915968 119.305872"></polygon>
                    <path d="M132.820128,22.144752 L130.830336,20.998656 C124.177536,17.369856 116.708256,18.434304 109.837728,22.386672 L109.837728,22.386672 L55.064016,53.8272 L92.8368,122.983056 L148.635648,90.883296 C150.410596,89.85565 151.5024,87.9597903 151.5024,85.908816 L151.5024,54.52272 C151.504314,41.168087 144.383084,28.8263889 132.820128,22.144752 Z" id="Path" fill="url(#linearGradient-1)" fill-rule="nonzero"></path>
                    <path d="M92.8368045,122.983056 L43.793568,94.6512 L43.793568,71.12448 C43.793568,56.56392 59.55768,47.46168 72.16776,54.743472 L74.157552,55.892592 C85.7225861,62.5747084 92.8433704,74.9199374 92.8368045,88.276608 L92.8368045,122.983056 Z" id="Path" fill="#13549C" fill-rule="nonzero"></path>
                    <path d="M88.461072,70.710192 L43.793568,94.6512 L92.8368108,122.983056 L92.8368108,88.276608 C92.8414541,82.150826 91.3387019,76.1180079 88.461072,70.710192 Z" id="Path" fill="#1A77DE" fill-rule="nonzero"></path>
                    <path d="M43.793568,94.6512 L28.256256,103.847184 C16.695504,110.6784 16.632,127.392048 28.156464,134.301888 L28.156464,134.301888 C41.9556693,142.581992 59.171965,142.678218 73.062864,134.55288 L92.8368,122.983056 L92.8368,119.895552 L43.793568,94.6512 Z" id="Path" fill="#1257A1" fill-rule="nonzero"></path>
                    <path d="M44.1504,94.6512 L28.250208,102.816 C16.689456,109.653264 16.641072,124.2864 28.156464,131.193216 L28.156464,131.193216 C41.9565836,139.470054 59.1710872,139.56627 73.062864,131.444208 L92.8368,119.895552 L44.1504,94.6512 Z" id="Path" fill="#1563B8" fill-rule="nonzero"></path>
                    <ellipse id="Oval" fill="#0D3B6E" fill-rule="nonzero" transform="translate(120.273862, 91.361523) rotate(-59.430000) translate(-120.273862, -91.361523) " cx="120.273862" cy="91.3615226" rx="6.280848" ry="3.997728"></ellipse>
                    <ellipse id="Oval" fill="#FFFFFF" fill-rule="nonzero" transform="translate(122.493892, 92.235466) rotate(-59.430000) translate(-122.493892, -92.235466) " cx="122.493892" cy="92.2354662" rx="6.280848" ry="3.997728"></ellipse>
                    <polygon id="Path" fill="#C24444" fill-rule="nonzero" points="120.563856 46.273248 135.18792 38.927952 135.18792 49.545216 120.563856 57.876336"></polygon>
                    <polygon id="Path" fill="#1257A1" fill-rule="nonzero" opacity="0.27" style="mix-blend-mode: multiply;" points="92.848896 104.938848 64.7136 115.882704 44.1504 103.10328 78.146208 89.882352 92.848896 99.017856"></polygon>
                    <path d="M122.369184,94.6512 L122.369184,94.6512 C121.367119,94.6512 120.554784,93.8388655 120.554784,92.8368 L120.554784,44.083872 C120.554784,43.0818065 121.367119,42.269472 122.369184,42.269472 L122.369184,42.269472 C123.371249,42.269472 124.183584,43.0818065 124.183584,44.083872 L124.183584,92.857968 C124.171989,93.8517571 123.363041,94.6512 122.369184,94.6512 L122.369184,94.6512 Z" id="Path" fill="#0D3B6E" fill-rule="nonzero"></path>
                    <path d="M120.563856,46.872 L120.603168,46.893168 C122.806503,48.2704715 125.581943,48.3502654 127.860768,47.101824 L137.737152,41.682816 L137.634336,52.98048 L127.830528,58.565808 C125.572905,59.8501557 122.797741,59.8154661 120.572928,58.475088 L120.572928,58.475088 L120.563856,46.872 Z" id="Path" fill="#ED5353" fill-rule="nonzero"></path>
                    <ellipse id="Oval" fill="#C2D8F0" fill-rule="nonzero" transform="translate(182.841522, 173.309732) rotate(-1.540000) translate(-182.841522, -173.309732) " cx="182.841522" cy="173.309732" rx="14.158368" ry="8.065008"></ellipse>
                    <path d="M173.949552,173.362896 L177.853536,169.60104 C178.376688,169.29864 179.556048,169.074864 180.360432,169.099056 C180.695507,169.090374 180.982266,169.337851 181.022688,169.670592 L181.083168,170.35704 C181.207152,171.33984 181.10736,171.49104 180.414864,171.905328 L176.2992,174.357792 C175.606704,174.77208 174.548304,174.902112 173.946528,174.660192 L173.777184,174.587616 C173.18448,174.321504 173.257056,173.77416 173.949552,173.362896 Z" id="Path" fill="#343456" fill-rule="nonzero"></path>
                    <path d="M180.48744,169.528464 C180.375552,170.90136 177.560208,171.276336 177.566256,169.876224 C174.74184,156.77928 174.826512,144.91008 174.778128,131.187168 L183.64752,124.362 C182.43792,136.21608 180.92592,146.231568 180.674928,156.504096 C180.644688,157.834656 181.246464,159.27408 181.264608,160.556256 C181.300896,163.217376 180.372528,166.9248 180.48744,169.528464 Z" id="Path" fill="#ED5353" fill-rule="nonzero"></path>
                    <path d="M179.979408,170.338896 C179.979408,170.338896 177.043104,172.104912 176.417136,171.820656 C175.89096,171.578736 177.971472,169.703856 177.971472,169.703856 L179.979408,170.338896 Z" id="Path" fill="#ED5353" fill-rule="nonzero"></path>
                    <path d="M192.395952,171.920448 L192.586464,165.551904 C192.76488,164.947104 193.578336,164.874528 194.24664,164.342304 C194.528352,164.107677 194.934833,164.098895 195.226416,164.321136 L195.813072,164.795904 C196.68096,165.446064 196.720272,165.630528 196.4844,166.41072 L195.07824,171.058608 C194.805853,171.875676 194.195739,172.53645 193.402944,172.873008 L193.209408,172.933488 C192.525984,173.163312 192.157056,172.703664 192.395952,171.920448 Z" id="Path" fill="#343456" fill-rule="nonzero"></path>
                    <path d="M194.694192,164.5056 C194.694192,164.5056 194.1408,168.548688 193.133808,168.7392 C193.133808,168.7392 192.486672,168.863184 192.529008,167.832 C192.571344,166.800816 192.395952,164.808 192.395952,164.808 L194.694192,164.5056 Z" id="Path" fill="#ED5353" fill-rule="nonzero"></path>
                    <path d="M194.558112,164.106432 C195.211296,165.071088 194.010768,166.870368 192.973536,166.223232 C189.39312,162.896832 186.713856,160.314336 184.167648,157.734864 C182.235312,155.78136 182.655648,150.970176 181.173888,148.224384 C177.669072,141.671376 185.601024,138.033504 187.696656,145.387872 C188.555472,148.393728 186.789456,151.133472 187.569648,153.794592 C187.989984,155.22192 189.571536,155.306592 190.856736,157.468752 C192.141936,159.630912 192.71952,160.961472 194.558112,164.106432 Z" id="Path" fill="#ED5353" fill-rule="nonzero"></path>
                    <path d="M157.692528,121.540608 L157.692528,121.540608 C158.505984,121.168656 158.92632,120.297744 158.629968,119.605248 L156.924432,117.310032 C156.622032,116.614512 157.033296,116.027856 156.21984,116.402832 L156.21984,116.402832 C155.406384,116.774784 154.762272,117.264672 155.052576,118.713168 L155.935584,120.651552 C156.047621,120.904376 156.198642,121.138051 156.383136,121.344048 C156.730896,121.712976 157.05144,121.830912 157.692528,121.540608 Z" id="Path" fill="#ED5353" fill-rule="nonzero"></path>
                    <path d="M185.906448,100.287936 C187.376112,106.387344 196.414848,102.486384 194.025888,112.063392 C192.876768,116.66592 181.131552,113.917104 181.131552,113.917104 L178.712352,100.163952 L185.906448,100.287936 Z" id="Path" fill="#233B6E" fill-rule="nonzero"></path>
                    <path d="M176.683248,106.4448 L165.573072,114.162048 C164.979557,114.573127 164.631982,115.254646 164.647728,115.976448 C164.677968,117.52776 165.207168,119.907648 168.303744,118.96416 C177.526944,116.185104 176.683248,106.4448 176.683248,106.4448 Z" id="Path" fill="#F0A711" fill-rule="nonzero"></path>
                    <path d="M186.024384,123.745104 C188.343792,129.015936 187.028352,140.398272 188.972784,150.259536 C188.972784,150.259536 182.540736,154.716912 174.841632,151.01856 C174.064464,144.56232 174.406176,137.174688 173.771136,128.33856 L186.024384,123.745104 Z" id="Path" fill="#27427A" fill-rule="nonzero"></path>
                    <path d="M183.13344,152.34912 C187.24608,146.201328 185.3712,126.772128 182.864304,124.380144 L185.782464,123.049584 C190.832544,131.305104 188.449632,140.110992 190.39104,149.963184 C190.39104,149.9904 186.08184,152.131392 183.13344,152.34912 Z" id="Path" fill="#213766" fill-rule="nonzero"></path>
                    <path d="M174.267072,128.713536 C174.112848,126.345744 174.850704,126.252 174.853728,123.518304 C174.923012,121.990671 174.889673,120.460111 174.753936,118.936944 C174.548304,117.07416 173.429424,115.643808 173.870928,113.38488 C173.943504,112.14504 175.364784,110.17944 175.476672,109.278288 C175.652064,107.85096 175.779072,106.532496 178.803072,105.177744 L180.118512,105.480144 C180.744952,105.625407 181.353438,105.839391 181.932912,106.118208 C188.014176,109.063584 189.34776,109.22688 188.857872,112.807296 C188.755056,114.651936 187.681536,113.197392 187.345872,114.41304 C186.668496,116.747568 186.317712,119.596176 187.119072,123.723936 C187.279344,124.55856 189.057456,127.29528 188.452656,127.987776 C185.020416,131.900832 175.349664,131.193216 174.267072,128.713536 Z" id="Path" fill="#FFBE3B" fill-rule="nonzero"></path>
                    <path d="" id="Path" fill="#FF5CAB" fill-rule="nonzero"></path>
                    <path d="M185.198832,107.690688 C185.198832,107.690688 182.855232,113.040144 179.6256,111.5856 C176.395968,110.131056 178.836336,105.292656 178.836336,105.292656 C181.048018,105.826322 183.185109,106.631794 185.198832,107.690688 Z" id="Path" fill="#ED5353" fill-rule="nonzero"></path>
                    <path d="M181.385568,108.664416 L181.16784,108.703728 C180.834821,108.783803 180.483465,108.718941 180.200986,108.525241 C179.918507,108.331541 179.73139,108.027165 179.68608,107.687664 L179.223408,103.78368 C179.168138,103.047941 179.683871,102.391792 180.41184,102.27168 L180.629568,102.229344 C180.962587,102.149269 181.313943,102.214131 181.596422,102.407831 C181.878901,102.601531 182.066018,102.905907 182.111328,103.245408 L183.139488,106.892352 C183.221136,107.59392 182.1204,108.528336 181.385568,108.664416 Z" id="Path" fill="#ED5353" fill-rule="nonzero"></path>
                    <path d="M184.578912,107.38224 C184.578912,107.38224 182.501424,112.904064 179.265744,111.370896 C176.755824,110.182464 178.660944,105.625296 178.660944,105.625296 L177.97752,105.743232 C177.97752,105.743232 175.700448,111.10176 179.36856,112.67424 C182.595168,114.056208 185.43168,107.817696 185.43168,107.817696 L184.578912,107.38224 Z" id="Path" fill="#FFFFFF" fill-rule="nonzero"></path>
                    <path d="M179.498592,105.755328 C180.711404,105.673845 181.827121,105.063462 182.549808,104.08608 C182.549808,104.08608 181.27368,106.614144 179.628624,106.865136 L179.498592,105.755328 Z" id="Path" fill="#BA4141" fill-rule="nonzero"></path>
                    <path d="M188.428464,127.993824 C189.033264,127.301328 187.255152,124.564608 187.09488,123.729984 C186.372144,120.010464 186.586848,117.3312 187.131168,115.129728 L185.498208,113.439312 C185.195808,115.29 184.842,117.107424 184.179744,118.685952 C183.623328,119.127456 181.721232,120.530592 180.342288,120.197952 C180.342288,120.197952 182.492352,120.999312 183.771504,120.996288 L184.346064,130.2588 C185.976,129.841488 187.460784,129.106656 188.428464,127.993824 Z" id="Path" fill="#F0A711" fill-rule="nonzero"></path>
                    <path d="M174.814416,119.305872 L175.95144,119.260512 C175.34664,119.057904 174.766032,118.271664 174.584592,118.0116 L174.53016,117.926928 L174.814416,119.305872 Z" id="Path" fill="#F0A711" fill-rule="nonzero"></path>
                    <path d="M183.1032,97.880832 C182.4984,96.870816 181.554912,96.671232 180.662832,97.239744 C179.80704,96.87384 178.757712,97.369776 177.968448,98.661024 C176.864688,100.460304 176.928192,102.988368 177.56928,104.58504 C177.914016,105.449904 178.328304,106.054704 180.390672,105.73416 C181.78776,105.489216 182.580048,105.096096 183.39048,103.76856 C184.491216,101.96928 183.983184,99.350496 183.1032,97.880832 Z" id="Path" fill="#ED5353" fill-rule="nonzero"></path>
                    <path d="M178.207344,99.36864 C180.626544,103.233312 182.068992,102.162816 182.117376,102.758544 L182.507472,104.355216 C182.737296,105.546672 183.94992,105.087024 185.102064,105.489216 L185.102064,105.489216 C185.102064,105.489216 187.521264,99.888768 184.315824,97.548192 C181.110384,95.207616 176.70744,97.378848 177.1308,100.529856 L178.207344,99.36864 Z" id="Path" fill="#233B6E" fill-rule="nonzero"></path>
                    <path d="M183.326976,103.281696 C183.063929,103.718782 182.514251,103.888114 182.050848,103.674816 C181.842344,103.566702 181.690003,103.374611 181.632224,103.146962 C181.574445,102.919313 181.61674,102.677822 181.748448,102.48336 C182.011495,102.046274 182.561173,101.876942 183.024576,102.09024 C183.23308,102.198354 183.385421,102.390445 183.4432,102.618094 C183.500979,102.845743 183.458684,103.087234 183.326976,103.281696 Z" id="Path" fill="#ED5353" fill-rule="nonzero"></path>
                    <path d="M178.440192,104.87232 L178.440192,104.87232 C178.080336,104.724144 177.79608,104.134464 177.805152,103.55688 L179.114544,104.098176 C179.105472,104.67576 178.803072,105.02352 178.440192,104.87232 Z" id="Path" fill="#FFFFFF" fill-rule="nonzero"></path>
                    <polygon id="Path" fill="#A3C3E8" fill-rule="nonzero" points="183.302784 142.49088 156.225888 130.09248 156.588768 109.281312 183.665664 121.682736"></polygon>
                    <polygon id="Path" fill="#CEE5FF" fill-rule="nonzero" points="156.588768 109.281312 167.381424 127.473696 183.665664 121.682736"></polygon>
                    <path d="M181.715184,132.780816 L181.715184,132.780816 C182.431872,133.31304 183.399552,133.264656 183.862224,132.668928 L185.050656,130.068288 C185.513328,129.463488 185.132304,129.85056 184.415616,129.315312 L184.415616,129.315312 C183.695904,128.783088 184.046688,128.151072 182.903616,129.106656 L181.630512,130.815216 C181.462962,131.03453 181.332229,131.279656 181.24344,131.540976 C181.098288,132.024816 181.1376,132.363504 181.715184,132.780816 Z" id="Path" fill="#ED5353" fill-rule="nonzero"></path>
                    <path d="M189.163296,123.618096 L183.457008,128.898 L184.382352,130.264848 L191.912112,126.636048 C192.572484,126.319799 193.047684,125.71378 193.197312,124.99704 L192.344544,121.204944 L189.163296,123.618096 Z" id="Path" fill="#ED5353" fill-rule="nonzero"></path>
                    <path d="M185.389344,113.865696 L188.21376,122.287536 C188.649216,124.355952 190.109808,123.99912 190.93536,123.844896 C192.14496,123.615072 193.18824,122.635296 192.8556,121.183776 C191.93328,117.16488 189.598752,111.830544 188.479872,110.152224 C187.996032,109.42344 187.134192,109.384128 186.027408,108.98496 C185.845968,108.918432 186.124176,109.83168 185.979024,110.001024 L185.979024,110.001024 C185.100375,111.088851 184.875089,112.565336 185.389344,113.865696 Z" id="Path" fill="#FFBE3B" fill-rule="nonzero"></path>
                    <polygon id="Path" fill="#8DB0D9" fill-rule="nonzero" points="168.636384 127.029168 169.262352 128.359728 183.665664 121.682736"></polygon>
                    <polygon id="Path" fill="#9FBFE3" fill-rule="nonzero" points="35.036064 123.66648 4.926096 117.36144 4.926096 96.532128 35.036064 102.837168"></polygon>
                    <polygon id="Path" fill="#C2D8F0" fill-rule="nonzero" points="4.926096 96.532128 17.182368 112.256928 35.036064 102.837168"></polygon>
                    <polygon id="Path" fill="#8DB0D9" fill-rule="nonzero" points="17.182368 112.256928 19.229616 113.149008 35.036064 102.837168"></polygon>
                    <path d="M27.32184,201.346992 C23.469264,199.399536 16.985808,199.472112 12.842928,201.510288 C12.2068303,201.815045 11.6106539,202.196923 11.06784,202.647312 C8.367408,201.86712 4.750704,202.090896 2.29824,203.297472 C-0.6048,204.7248 -0.780192,207.001872 1.926288,208.36872 C4.529952,209.68416 8.833104,209.68416 11.74824,208.411056 C11.92968,208.51992 12.117168,208.62576 12.316752,208.713456 C16.172352,210.660912 22.652784,210.585312 26.795664,208.547136 C30.938544,206.50896 31.174416,203.291424 27.32184,201.346992 Z" id="Path" fill="#8288D4" fill-rule="nonzero" opacity="0.21" style="mix-blend-mode: multiply;"></path>
                    <path d="M9.561888,132.66288 C9.105264,131.516784 7.182,126.31248 7.182,126.31248 L3.108672,127.9152 L5.830272,137.525472 L9.561888,132.66288 Z" id="Path" fill="#ED5353" fill-rule="nonzero"></path>
                    <path d="M8.990352,130.4856 C8.990352,130.4856 11.860128,137.567808 12.619152,139.714848 C13.378176,141.861888 7.898688,143.85168 7.898688,143.85168 L3.362688,133.034832 L8.990352,130.4856 Z" id="Path" fill="#9AB9DB" fill-rule="nonzero"></path>
                    <path d="M3.541104,201.7008 L5.763744,201.960864 C7.22736,201.452832 7.901712,200.950848 8.585136,201.676608 L8.781696,201.88224 C9.084096,202.408416 9.01152,203.324688 8.524656,203.723856 L4.932144,206.747856 C4.185216,207.140976 2.763936,206.847648 2.512944,205.759008 C2.512944,205.759008 2.261952,202.689648 2.606688,202.523328 C3.287088,202.196736 2.942352,202.027392 3.541104,201.7008 Z" id="Path" fill="#27427A" fill-rule="nonzero"></path>
                    <polygon id="Path" fill="#27427A" fill-rule="nonzero" points="8.781696 172.089792 17.152128 173.550384 17.152128 164.808 8.781696 163.347408"></polygon>
                    <path d="M19.810224,203.321664 L22.788864,203.572656 C24.905664,203.103936 25.964064,202.635216 26.720064,203.31864 L26.937792,203.512176 C27.240192,204.005088 26.89848,204.863904 26.133408,205.235856 L20.475504,208.0512 C19.356624,208.417104 18.125856,208.120752 18.035136,207.101664 C18.035136,207.101664 17.805312,204.243984 18.319392,204.077664 C19.3536,203.77224 18.91512,203.611968 19.810224,203.321664 Z" id="Path" fill="#27427A" fill-rule="nonzero"></path>
                    <path d="M21.452256,204.594768 C21.536928,205.804368 18.621792,205.997904 18.53712,204.797376 L18.261936,200.902464 L21.180096,200.696832 L21.452256,204.594768 Z" id="Path" fill="#A8ACBA" fill-rule="nonzero"></path>
                    <path d="M21.827232,201.059712 C20.920032,202.520304 18.394992,202.704768 17.775072,201.815712 C17.003952,196.336224 14.6664,190.626912 16.166304,182.882448 L11.817792,160.123824 L22.247568,161.333424 L21.960288,185.761296 L21.827232,201.059712 Z" id="Path" fill="#27427A" fill-rule="nonzero"></path>
                    <path d="M5.4432,203.433552 C5.252688,204.621984 2.367792,204.156288 2.558304,202.97088 L3.163104,199.11528 L6.048,199.584 L5.4432,203.433552 Z" id="Path" fill="#A8ACBA" fill-rule="nonzero"></path>
                    <path d="M6.604416,200.076912 C5.394816,201.286512 2.88792,200.89944 2.485728,199.892448 C2.981664,194.38272 2.001888,188.28936 5.207328,181.089216 L6.141744,157.937472 L16.0272,161.4816 L10.212048,185.20488 L6.604416,200.076912 Z" id="Path" fill="#27427A" fill-rule="nonzero"></path>
                    <path d="M16.852752,134.568 C17.04024,136.929744 15.682464,138.1212 13.828752,137.235168 C11.97504,136.349136 11.12832,133.49448 10.940832,131.13576 C10.753344,128.77704 12.286512,128.55024 13.148352,128.692368 C15.171408,129.025008 16.66224,132.206256 16.852752,134.568 Z" id="Path" fill="#ED5353" fill-rule="nonzero"></path>
                    <path d="M19.83744,133.567056 C19.770912,135.931824 17.611776,137.33496 15.854832,136.255392 C14.097888,135.175824 12.724992,132.378624 12.79152,130.010832 C12.858048,127.64304 14.336784,126.605808 16.093728,127.685376 C17.850672,128.764944 19.900944,131.199264 19.83744,133.567056 Z" id="Path" fill="#ED5353" fill-rule="nonzero"></path>
                    <path d="M14.173488,140.851872 L13.931568,140.788368 C13.113537,140.573625 12.6220023,139.739097 12.830832,138.919536 L14.022288,134.31096 C14.2370309,133.492929 15.0715595,133.001394 15.89112,133.210224 L16.13304,133.273728 C16.9522957,133.487126 17.4454305,134.322077 17.2368,135.14256 L16.743888,139.73904 C16.529184,140.55552 14.989968,141.063552 14.173488,140.851872 Z" id="Path" fill="#ED5353" fill-rule="nonzero"></path>
                    <path d="M11.760336,135.653616 C11.760336,135.653616 12.20184,137.247264 15.10488,136.920672 C17.29728,136.675728 15.70968,132.913872 17.732736,131.98248 C20.454336,130.721472 19.374768,128.0664 18.177264,127.198512 C16.97976,126.330624 15.455664,126.832608 13.574736,127.4616 C11.587968,128.123856 8.881488,129.663072 11.760336,135.653616 Z" id="Path" fill="#27427A" fill-rule="nonzero"></path>
                    <circle id="Oval" fill="#ED5353" fill-rule="nonzero" cx="17.351712" cy="132.95016" r="1.04328"></circle>
                    <path d="M5.409936,162.914976 C5.092416,156.482928 6.150816,151.121376 5.869584,146.098512 C5.978448,136.500336 6.9552,138.520368 10.103184,137.873232 L12.219984,137.640384 C12.879216,137.764368 13.48704,138.066768 14.1372,138.22704 C16.8588,138.89232 18.603648,139.040496 20.557152,140.098896 C22.298976,141.042384 22.398768,143.561376 22.395744,145.672128 C22.864464,151.856208 23.000544,161.167104 23.079168,164.221344 C22.0752,168.591024 7.064064,165.872448 5.409936,162.914976 Z" id="Path" fill="#9AB9DB" fill-rule="nonzero"></path>
                    <path d="M17.741808,136.542672 L17.360784,136.04976 C17.7798125,136.244248 18.2632435,136.244248 18.682272,136.04976 C18.4184336,136.29511 18.0936928,136.465312 17.741808,136.542672 L17.741808,136.542672 Z" id="Path" fill="#BA4141" fill-rule="nonzero"></path>
                    <path d="M23.106384,146.39184 L21.509712,148.11552 C19.634832,155.67552 20.50272,163.347408 17.430336,166.56192 C19.311264,166.56192 21.034944,166.310928 22.308048,165.373488 C22.3776,165.373488 22.964256,164.859408 23.051952,163.91592 L23.106384,146.39184 Z" id="Path" fill="#82A1C7" fill-rule="nonzero"></path>
                    <path d="M11.835936,137.510352 C11.835936,137.510352 11.32488,138.901392 12.963888,139.42152 C14.602896,139.941648 17.309376,139.025376 17.309376,139.025376 C17.309376,139.025376 15.507072,137.1384 11.835936,137.510352 Z" id="Path" fill="#FFFFFF" fill-rule="nonzero"></path>
                    <path d="M17.729712,133.6608 L17.729712,133.6608 C17.5387622,133.684005 17.3647428,133.549106 17.339616,133.3584 L16.734816,131.147856 C16.710624,130.960368 17.203536,131.072256 17.394048,131.04504 L17.394048,131.04504 C17.581536,131.020848 18.125856,130.84848 18.150048,131.04504 L18.041184,133.273728 C18.0513533,133.366388 18.0242232,133.459286 17.9657839,133.531909 C17.9073446,133.604533 17.8224025,133.65091 17.729712,133.6608 Z" id="Path" fill="#27427A" fill-rule="nonzero"></path>
                    <path d="M5.325264,115.967376 C5.325264,115.967376 2.821392,125.23896 3.102624,127.724688 C3.383856,130.210416 7.451136,127.216656 7.451136,127.216656 L7.980336,117.207216 L5.325264,115.967376 Z" id="Path" fill="#ED5353" fill-rule="nonzero"></path>
                    <path d="M5.00472,113.7024 L5.00472,113.7024 C5.833296,113.257872 6.794928,113.433264 7.145712,114.092496 L7.838208,116.880624 C8.188992,117.54288 7.880544,117.113472 7.051968,117.558 L7.051968,117.558 C6.226416,118.005552 6.447168,118.692 5.506704,117.576144 L4.557168,115.68312 C4.42995855,115.43806 4.34509858,115.173256 4.306176,114.899904 C4.2336,114.391872 4.35456,114.056208 5.00472,113.7024 Z" id="Path" fill="#ED5353" fill-rule="nonzero"></path>
                    <path d="M35.44128,121.15656 C35.44128,121.15656 34.648992,129.811248 33.472656,132.018768 C32.29632,134.226288 28.69776,131.093424 28.69776,131.093424 L32.849712,121.416624 L35.44128,121.15656 Z" id="Path" fill="#ED5353" fill-rule="nonzero"></path>
                    <path d="M35.44128,118.047888 L35.44128,118.047888 C34.585488,117.660816 33.62688,117.908784 33.32448,118.592208 L32.837616,121.422672 C32.535216,122.10912 32.813424,121.65552 33.67224,122.042592 L33.67224,122.042592 C34.528032,122.42664 34.349616,123.128208 35.21448,121.945824 L36.021888,119.989296 C36.1317738,119.735216 36.1972361,119.464162 36.215424,119.187936 C36.25776,118.673856 36.115632,118.350288 35.44128,118.047888 Z" id="Path" fill="#ED5353" fill-rule="nonzero"></path>
                    <path d="M29.142288,140.032368 C29.747088,138.949776 32.985792,132.472368 32.985792,132.472368 L29.157408,130.355568 L20.901888,141.241968 L29.142288,140.032368 Z" id="Path" fill="#ED5353" fill-rule="nonzero"></path>
                    <path d="M22.9824,148.653792 L30.27024,139.064688 C32.223744,137.90952 25.782624,133.140672 23.76864,134.740368 C23.641632,134.84016 17.348688,141.771168 17.348688,141.771168 C17.348688,141.771168 19.117728,148.96224 22.9824,148.653792 Z" id="Path" fill="#9AB9DB" fill-rule="nonzero"></path>
                    <polygon id="Path" fill="#C2D8F0" fill-rule="nonzero" points="83.238624 209.829312 119.723184 188.764128 97.164144 175.73976 74.444832 211.108464"></polygon>
                    <polygon id="Path" fill="#C44545" fill-rule="nonzero" points="74.444832 209.829312 110.929392 188.764128 88.370352 175.73976 51.882768 196.804944"></polygon>
                    <polygon id="Path" fill="#B03F3F" fill-rule="nonzero" points="51.882768 196.804944 51.882768 197.872416 74.444832 211.108464 74.444832 209.829312"></polygon>
                    <polygon id="Path" fill="#A13939" fill-rule="nonzero" points="110.929392 190.070496 74.444832 211.108464 74.444832 209.829312 110.929392 188.764128"></polygon>
                    <polygon id="Path" fill="#C44545" fill-rule="nonzero" points="74.444832 206.94744 110.929392 185.882256 88.370352 172.857888 51.882768 193.920048"></polygon>
                    <polygon id="Path" fill="#B03F3F" fill-rule="nonzero" points="51.882768 193.920048 51.882768 194.990544 74.444832 208.226592 74.444832 206.94744"></polygon>
                    <polygon id="Path" fill="#A13939" fill-rule="nonzero" points="110.929392 187.188624 74.444832 208.226592 74.444832 206.94744 110.929392 185.882256"></polygon>
                    <polygon id="Path" fill="#ED5353" fill-rule="nonzero" points="74.444832 203.905296 110.929392 182.840112 88.370352 169.815744 51.882768 190.880928"></polygon>
                    <polygon id="Path" fill="#B03F3F" fill-rule="nonzero" points="51.882768 190.880928 51.882768 191.951424 74.444832 205.184448 74.444832 203.905296"></polygon>
                    <polygon id="Path" fill="#A13939" fill-rule="nonzero" points="110.929392 184.149504 74.444832 205.184448 74.444832 203.905296 110.929392 182.840112"></polygon>
                    <polygon id="Path" fill="#D94C4C" fill-rule="nonzero" points="74.444832 203.905296 79.16832 184.575888 85.954176 180.662832 110.929392 182.840112"></polygon>
                    <polygon id="Path" fill="#F26D6D" fill-rule="nonzero" points="51.882768 190.880928 87.813936 187.7148 88.370352 169.815744"></polygon>
                    <polygon id="Path" fill="#D94C4C" fill-rule="nonzero" points="52.142832 190.880928 83.852496 191.165184 78.191568 188.564544"></polygon>
                    <polygon id="Path" fill="#ED5353" fill-rule="nonzero" points="155.230992 184.609152 152.935776 179.79192 149.948064 180.067104 151.581024 185.12928"></polygon>
                    <path d="M154.305648,174.013056 C154.305648,174.013056 155.799504,182.428848 150.072048,182.758464 C150.072048,182.758464 147.816144,183.580992 147.776832,177.666048 C147.73752,171.751104 151.841088,172.570608 154.305648,174.013056 Z" id="Path" fill="#ED5353" fill-rule="nonzero"></path>
                    <path d="M149.440032,182.737296 C150.370653,182.039253 151.110154,181.117737 151.590096,180.058032 L154.069776,181.518624 L155.119104,184.370256 L151.402608,184.799664 L150.858288,182.773584 C150.858288,182.773584 149.827104,182.952 149.440032,182.737296 Z" id="Path" fill="#ED5353" fill-rule="nonzero"></path>
                    <path d="M153.667584,181.905696 L153.259344,181.872432 C152.902512,181.960128 152.270496,181.125504 152.134416,180.777744 C151.89552,180.172944 151.112304,179.846352 150.873408,178.917984 C150.77664,178.549056 150.02064,178.712352 149.842224,178.047072 C149.515632,176.837472 147.97944,175.627872 147.97944,175.627872 C147.97944,175.627872 147.241584,175.373856 147.398832,174.753936 C147.628656,173.846736 148.176,174.028176 148.753584,173.520144 C150.044832,172.386144 154.744128,171.902304 156.114,174.944448 C157.674384,178.416 153.667584,181.905696 153.667584,181.905696 Z" id="Path" fill="#233B6E" fill-rule="nonzero"></path>
                    <path d="M150.056928,179.435088 C150.087168,180.015696 150.48936,180.481392 150.964128,180.47232 C151.438896,180.463248 151.780608,179.979408 151.750368,179.395776 C151.720128,178.812144 151.317936,178.349472 150.843168,178.358544 C150.3684,178.367616 150.026688,178.851456 150.056928,179.435088 Z" id="Path" fill="#ED5353" fill-rule="nonzero"></path>
                    <ellipse id="Oval" fill="#A8C4E5" fill-rule="nonzero" opacity="0.4" style="mix-blend-mode: multiply;" transform="translate(151.530559, 217.214607) rotate(-2.650000) translate(-151.530559, -217.214607) " cx="151.530559" cy="217.214607" rx="14.082768" ry="7.366464"></ellipse>
                    <path d="M140.9184,210.037968 C140.9184,210.037968 140.966784,215.405568 154.408464,219.388176 L155.224944,218.130192 L143.85168,206.802288 L140.9184,210.037968 Z" id="Path" fill="#ED5353" fill-rule="nonzero"></path>
                    <path d="M154.266336,219.8448 L156.667392,220.94856 C158.097744,222.236784 158.69952,223.06536 159.582528,222.859728 L159.830496,222.802272 C160.713504,222.608736 160.858656,221.822496 160.154064,221.0544 L157.405248,216.972 C156.686684,216.219768 155.582782,215.98031 154.61712,216.3672 C154.61712,216.3672 154.08792,216.60912 153.888336,218.260224 C153.773424,219.24 153.703872,219.24 154.266336,219.8448 Z" id="Path" fill="#213766" fill-rule="nonzero"></path>
                    <path d="M137.72808,210.718368 C137.72808,210.718368 134.752464,216.237168 151.565904,222.318432 L152.775504,219.956688 L141.19056,210.866544 L137.72808,210.718368 Z" id="Path" fill="#ED5353" fill-rule="nonzero"></path>
                    <path d="M159.630912,203.421456 L145.345536,204.234912 C143.730692,204.324056 142.180337,204.898457 140.897232,205.882992 C138.190752,207.969552 134.758512,211.743504 141.003072,214.271568 L153.591984,218.523312 C156.292416,219.463776 158.766048,219.430512 160.601616,217.011312 C162.216432,214.894512 162.264816,209.989584 161.1792,207.8244 L159.630912,203.421456 Z" id="Path" fill="#213766" fill-rule="nonzero"></path>
                    <path d="M140.9184,205.916256 C139.748112,206.823456 138.447792,208.033056 137.842992,209.327328 L145.4544,211.894704 C147.513744,212.275728 149.3856,211.86144 150.83712,209.944224 C151.874352,208.5804 152.261424,206.076528 152.12232,203.896224 L145.372752,204.283296 C143.757298,204.366113 142.204608,204.935327 140.9184,205.916256 Z" id="Path" fill="#27427A" fill-rule="nonzero"></path>
                    <path d="M151.5024,222.514992 L153.867168,223.603632 C155.279376,224.870688 155.87208,225.675072 156.739968,225.48456 L156.984912,225.430128 C157.855824,225.239616 157.997952,224.462448 157.305456,223.706448 L156.168432,222.224688 C155.950606,221.933425 155.748711,221.630582 155.563632,221.317488 L154.602,219.681504 C153.892099,218.943953 152.804723,218.712826 151.856208,219.097872 C151.856208,219.097872 151.333056,219.333744 151.136496,220.96368 C151.027632,221.895072 150.95808,221.910192 151.5024,222.514992 Z" id="Path" fill="#213766" fill-rule="nonzero"></path>
                    <path d="M159.90912,202.172544 C159.90912,202.172544 159.869808,198.640512 159.987744,196.457184 C160.163136,193.275936 160.311312,187.515216 160.311312,187.491024 C160.311312,185.80968 161.015904,184.793616 158.194512,183.326976 L155.1312,182.570976 L151.157664,184.575888 C151.157664,184.575888 145.412064,188.809488 145.796112,192.7044 C145.96848,194.5188 147.837312,197.319024 148.532832,199.819872 L147.798,204.7248 C148.127616,208.492704 158.572512,206.572464 160.178256,203.478912 C160.51392,202.825728 160.132896,202.236048 159.90912,202.172544 Z" id="Path" fill="#176BC7" fill-rule="nonzero"></path>
                    <path d="M148.925952,191.476656 C151.060896,195.356448 151.402608,205.807392 151.587072,206.823456 C149.485392,206.823456 147.794976,206.218656 147.655872,204.742944 L148.393728,199.844064 C147.698208,197.343216 145.829376,194.552064 145.657008,192.728592 C145.53,191.407104 146.107584,190.046304 146.927088,188.824608 L147.280896,188.588736 C147.280896,188.588736 147.8736,189.556416 148.925952,191.476656 Z" id="Path" fill="#13549C" fill-rule="nonzero"></path>
                    <path d="M139.993056,196.145712 C136.712016,193.215456 133.44912,191.7216 131.716368,189.3024 L130.609584,190.832544 C130.609584,190.832544 137.945808,201.301632 139.838832,200.176704 C142.666272,198.501408 139.993056,196.145712 139.993056,196.145712 Z" id="Path" fill="#ED5353" fill-rule="nonzero"></path>
                    <path d="M149.421888,189.973728 C149.421888,189.973728 142.496928,199.348128 140.446656,199.529568 C138.396384,199.711008 138.889296,196.203168 138.889296,196.203168 L146.80008,188.292384 L149.421888,189.973728 Z" id="Path" fill="#ED5353" fill-rule="nonzero"></path>
                    <path d="M142.025184,192.595536 L141.199632,193.536 C141.720782,194.981606 142.926916,196.073248 144.417168,196.448112 L145.275984,195.522768 L142.025184,192.595536 Z" id="Path" fill="#FFFFFF" fill-rule="nonzero"></path>
                    <path d="M150.380496,185.353056 C148.47519,185.974081 146.802256,187.156835 145.581408,188.745984 C144.556272,190.146096 141.985872,192.701376 141.985872,192.701376 C141.88608,194.388768 142.980768,195.262704 145.678176,196.330176 L154.31472,186.496128 L150.380496,185.353056 Z" id="Path" fill="#176BC7" fill-rule="nonzero"></path>
                    <path d="M150.211152,185.353056 L151.07904,183.711024 L157.3992,182.329056 C157.3992,182.329056 156.815568,185.171616 153.988128,184.748256 C152.34912,184.503312 150.211152,185.353056 150.211152,185.353056 Z" id="Path" fill="#FFFFFF" fill-rule="nonzero"></path>
                    <path d="M130.800096,187.055568 C130.769856,187.309584 131.084352,187.905312 131.159952,188.283312 C131.281525,188.9408 131.346276,189.607533 131.353488,190.276128 C131.353488,190.276128 132.17904,190.98072 132.64776,190.17936 C133.11648,189.378 132.067152,188.035344 132.067152,188.035344 L131.214384,186.350976 C131.214384,186.350976 130.905936,186.11208 130.800096,187.055568 Z" id="Path" fill="#ED5353" fill-rule="nonzero"></path>
                    <path d="M128.396016,188.216784 C128.344608,187.884144 128.290176,187.51824 128.290176,187.51824 C128.19784,186.962767 128.346293,186.394248 128.698416,185.954832 L129.886848,187.30656 C130.615632,187.76016 131.205312,188.177472 131.30208,188.615952 L131.719392,188.800416 C131.779873,188.826403 131.821534,188.883109 131.828256,188.948592 L132.067152,190.87488 C132.077223,190.946258 132.04548,191.017088 131.985502,191.057074 C131.925524,191.097059 131.847934,191.099117 131.78592,191.062368 C131.646816,190.971648 131.450256,190.832544 131.220432,190.666224 L131.081328,191.319408 C131.081328,191.319408 129.430224,189.768096 128.825424,189.04536 L128.804256,189.021168 C128.590439,188.800154 128.448176,188.519843 128.396016,188.216784 Z" id="Path" fill="#ED5353" fill-rule="nonzero"></path>
                    <path d="M157.362912,223.682256 L156.225888,222.200496 C156.006435,221.910386 155.804477,221.607448 155.621088,221.293296 L154.659456,219.660336 C154.018416,218.996861 153.065364,218.737993 152.176752,218.985984 C152.216064,219.106944 152.101152,218.874096 152.176752,218.985984 C151.995312,219.397248 153.053712,220.972752 154.414512,222.557328 L156.470832,225.405936 L156.528288,225.48456 C156.620676,225.488415 156.713174,225.480283 156.803472,225.460368 L157.048416,225.405936 C157.910256,225.215424 158.055408,224.438256 157.362912,223.682256 Z" id="Path" fill="#172747" fill-rule="nonzero"></path>
                    <polygon id="Path" fill="#9FBFE3" fill-rule="nonzero" points="92.848896 101.8332 64.7136 112.774032 44.1504 99.997632 78.146208 86.776704 92.848896 95.912208"></polygon>
                    <polygon id="Path" fill="#C2D8F0" fill-rule="nonzero" points="44.1504 99.997632 71.429904 99.773856 78.146208 86.776704"></polygon>
                    <path d="M92.8368626,88.276608 C92.8414404,85.745513 92.5881319,83.2205334 92.0808,80.7408 L62.548416,87.487344 L78.21576,102.002544 L92.8368626,98.679168 L92.8368626,88.276608 Z" id="Path" fill="#E0EFFF" fill-rule="nonzero"></path>
                    <path d="M92.727936,86.7888 L89.226144,90.465984 L62.548416,87.508512 L92.0808,80.7408 C92.0808,80.7408 93.1392,84.387744 92.727936,86.7888 Z" id="Path" fill="#FAFCFF" fill-rule="nonzero"></path>
                    <path d="M44.1504,94.6512 L44.1504,70.32312 C44.1504,55.76256 59.914512,46.66032 72.524592,53.942112 L74.514384,55.091232 C86.0812661,61.7686541 93.2065614,74.1102512 93.205728,87.466176 L93.205728,122.1696" id="Path" stroke="#C2D8F0" stroke-width="0.6048" stroke-linecap="round" stroke-linejoin="round"></path>
                    <path d="M153.700848,174.744864 C153.700848,174.744864 156.954672,171.615024 158.914224,176.256864 C160.873776,180.898704 158.826528,185.800608 162.083376,188.74296 C162.083376,188.74296 155.820672,188.023248 155.627136,183.971088 C155.4336,179.918928 156.231936,176.619744 154.009296,176.2236 C151.786656,175.827456 153.700848,174.744864 153.700848,174.744864 Z" id="Path" fill="#233B6E" fill-rule="nonzero"></path>
                    <polygon id="Path" fill="#FFFFFF" fill-rule="nonzero" points="136.769472 73.791648 166.029696 68.998608 147.595392 79.59168"></polygon>
                    <polygon id="Path" fill="#FFFFFF" fill-rule="nonzero" points="166.029696 68.998608 151.066944 81.306288 160.259904 87.139584"></polygon>
                    <polygon id="Path" fill="#BED5F0" fill-rule="nonzero" points="147.595392 79.59168 148.935024 86.555952 151.066944 81.306288 166.029696 68.998608"></polygon>
                    <polygon id="Path" fill="#A3C3E8" fill-rule="nonzero" points="148.935024 86.555952 154.248192 83.32632 151.066944 81.306288"></polygon>
                    <path d="M108.135216,127.6128 C108.083717,127.626667 108.029467,127.626667 107.977968,127.6128 C107.395869,127.40968 106.825474,127.174455 106.269408,126.908208 C106.132755,126.828086 106.081093,126.656085 106.150982,126.513926 C106.22087,126.371767 106.38862,126.307634 106.53552,126.366912 C107.071937,126.619777 107.621015,126.844859 108.180576,127.041264 C108.310816,127.086105 108.394296,127.213295 108.383623,127.350624 C108.37295,127.487953 108.27082,127.600716 108.135216,127.624896 L108.135216,127.6128 Z" id="Path" fill="#FFFFFF" fill-rule="nonzero"></path>
                    <path d="M118.72224,128.598624 C118.614203,128.620231 118.502845,128.58256 118.430114,128.499801 C118.357383,128.417042 118.334328,128.301768 118.369634,128.197401 C118.40494,128.093035 118.493243,128.015431 118.60128,127.993824 C119.744668,127.744278 120.847872,127.337192 121.879296,126.784224 C121.974369,126.732906 122.089597,126.736208 122.181576,126.792884 C122.273554,126.849561 122.32831,126.951002 122.325216,127.058996 C122.322122,127.16699 122.261649,127.26513 122.166576,127.316448 C121.084082,127.893254 119.927029,128.317609 118.728288,128.577456 L118.72224,128.598624 Z M115.156944,128.94336 L115.096464,128.94336 C113.877698,128.921062 112.663323,128.790517 111.467664,128.553264 C111.359627,128.532197 111.271036,128.455093 111.235262,128.350996 C111.199488,128.2469 111.221967,128.131625 111.29423,128.048596 C111.366493,127.965567 111.477563,127.927397 111.5856,127.948464 C112.742615,128.176675 113.917388,128.303158 115.096464,128.326464 C115.263475,128.326464 115.398864,128.461853 115.398864,128.628864 C115.407885,128.779341 115.3047,128.913481 115.156944,128.94336 Z M124.957728,125.245008 C124.858561,125.263989 124.756464,125.232225 124.685568,125.160336 C124.62832,125.103555 124.596119,125.026263 124.596119,124.945632 C124.596119,124.865001 124.62832,124.787709 124.685568,124.730928 C125.521839,123.906993 126.256824,122.986231 126.874944,121.98816 C126.964156,121.84886 127.14874,121.807093 127.289232,121.894416 C127.357511,121.936829 127.406095,122.00468 127.424252,122.082982 C127.442409,122.161285 127.428645,122.243594 127.386,122.311728 C126.742203,123.348825 125.977856,124.306034 125.108928,125.16336 C125.068944,125.206547 125.01577,125.235261 124.957728,125.245008 L124.957728,125.245008 Z M128.801232,119.248416 C128.744169,119.257308 128.685772,119.251051 128.631888,119.230272 C128.47764,119.167402 128.403277,118.991634 128.465568,118.837152 L128.53512,118.664784 C128.94336,117.624528 129.330432,116.547984 129.68424,115.483536 C129.736848,115.324876 129.908116,115.238904 130.066776,115.291512 C130.225436,115.34412 130.311408,115.515388 130.2588,115.674048 C129.901968,116.753616 129.511872,117.836208 129.097584,118.885536 L129.025008,119.063952 C128.986688,119.15953 128.902366,119.229039 128.801232,119.248416 Z M131.054112,112.438368 C131.009341,112.448707 130.962803,112.448707 130.918032,112.438368 C130.840605,112.417166 130.774786,112.366047 130.735079,112.296277 C130.695373,112.226507 130.685038,112.143812 130.706352,112.066416 C131.008752,110.983824 131.274864,109.8468 131.556096,108.594864 C131.599378,108.440396 131.755746,108.346604 131.9124,108.381149 C132.069054,108.415693 132.171474,108.56655 132.145776,108.724896 C131.864544,109.988928 131.583312,111.144096 131.289984,112.223664 C131.258563,112.334249 131.167156,112.417453 131.054112,112.438368 L131.054112,112.438368 Z M132.644736,105.443856 C132.606671,105.449908 132.567889,105.449908 132.529824,105.443856 C132.451219,105.42783 132.382202,105.381228 132.337965,105.314305 C132.293727,105.247381 132.277895,105.165623 132.293952,105.087024 L132.366528,104.724144 C132.590304,103.623408 132.79896,102.583152 133.02576,101.567088 C133.062502,101.400077 133.227677,101.294474 133.394688,101.331216 C133.561699,101.367958 133.667302,101.533133 133.63056,101.700144 C133.406784,102.707136 133.198128,103.744368 132.974352,104.84208 L132.901776,105.207984 C132.874656,105.333087 132.771703,105.427561 132.644736,105.443856 Z M134.271648,98.458416 C134.223833,98.4689058 134.174311,98.4689058 134.126496,98.458416 C133.967055,98.4090817 133.877729,98.2399034 133.926912,98.080416 C134.274591,96.9200872 134.712387,95.7886932 135.236304,94.69656 C135.311631,94.5511845 135.488979,94.4921669 135.636396,94.563418 C135.783812,94.6346692 135.847744,94.8103054 135.780624,94.959648 C135.271397,96.0240371 134.844763,97.1260049 134.504496,98.255808 C134.468773,98.362539 134.376731,98.4405999 134.2656,98.458416 L134.271648,98.458416 Z M137.45592,92.083824 C137.33068,92.1119004 137.20136,92.057859 137.133335,91.9490196 C137.06531,91.8401802 137.073402,91.7002563 137.15352,91.599984 C137.907737,90.646499 138.757912,89.7730179 139.690656,88.993296 C139.819254,88.885574 140.01083,88.9024976 140.118552,89.031096 C140.226274,89.1596944 140.20935,89.35127 140.080752,89.458992 C139.177866,90.2099411 138.355915,91.0531753 137.628288,91.97496 C137.585165,92.0301054 137.524245,92.0685812 137.45592,92.083824 L137.45592,92.083824 Z" id="Shape" fill="#FFFFFF" fill-rule="nonzero"></path>
                    <path d="M142.917264,87.429888 C142.773357,87.4570046 142.6307,87.3771123 142.57863,87.2402429 C142.52656,87.1033736 142.580042,86.948863 142.705584,86.873472 C143.210592,86.571072 143.748864,86.268672 144.30528,85.981392 C144.401192,85.9280904 144.518453,85.9309267 144.611676,85.9888032 C144.704899,86.0466797 144.759456,86.1505139 144.754231,86.2601176 C144.749006,86.3697213 144.684818,86.4678944 144.586512,86.51664 C144.039168,86.800896 143.509968,87.094224 143.017056,87.390576 C142.986692,87.4100984 142.952784,87.4234561 142.917264,87.429888 L142.917264,87.429888 Z" id="Path" fill="#FFFFFF" fill-rule="nonzero"></path>
                </g>
            </g>
        </g>
    </g>
</svg>