<?xml version="1.0" encoding="UTF-8"?>
<svg width="238px" height="251px" viewBox="0 0 238 251" version="1.1" xmlns="http://www.w3.org/2000/svg" xmlns:xlink="http://www.w3.org/1999/xlink">
    <!-- Generator: Sketch 63.1 (92452) - https://sketch.com -->
    <title>Unsubscribe email with people - Tablet</title>
    <desc>Created with Sketch.</desc>
    <defs>
        <linearGradient x1="-0.0031356809%" y1="49.9998747%" x2="100.009407%" y2="49.9998747%" id="linearGradient-1">
            <stop stop-color="#2E90FE" offset="8%"></stop>
            <stop stop-color="#2077E7" offset="64%"></stop>
            <stop stop-color="#1A6DDE" offset="100%"></stop>
        </linearGradient>
    </defs>
    <g id="Responsive" stroke="none" stroke-width="1" fill="none" fill-rule="evenodd">
        <g id="21.0---responsive" transform="translate(-1996.000000, -409.000000)">
            <g id="Group-4" transform="translate(1731.000000, 277.000000)">
                <g id="Unsubscribe-email-with-people---Tablet" transform="translate(265.000000, 132.000000)">
                    <path d="M58.49088,58.54128 C56.7799192,53.0476707 54.740076,47.6619459 52.3824,42.41328 C48.0144,32.92464 45.47424,17.25696 66.71952,5.2752 C99.38208,-13.14768 90.09504,23.65776 120.35856,11.9952 C150.62208,0.33264 183.06288,-0.1008 187.37376,26.86656 C191.68464,53.83392 192.07776,66.96816 208.11504,71.61168 C240.83808,81.08352 254.22768,131.65152 208.6224,153.47472 C163.01712,175.29792 152.07696,145.30992 132.3504,146.19024 C112.62384,147.07056 120.9264,76.6584 87.6624,75.012 C67.35792,73.99728 60.64128,65.2344 58.49088,58.54128 Z" id="Path" fill="#C2D8F0" fill-rule="nonzero"></path>
                    <path d="M163.03392,201.35808 L170.89632,208.41408 L165.92688,210.53088 C165.92688,210.53088 160.776,202.49712 160.9776,201.90576 C161.1792,201.3144 163.03392,201.35808 163.03392,201.35808 Z" id="Path" fill="#ED5353" fill-rule="nonzero"></path>
                    <path d="M163.296,201.47232 C163.296,201.47232 161.98224,198.31392 160.77936,197.72928 C159.89568,197.30256 158.11152,197.05728 157.22784,196.96656 C157.163793,196.956175 157.100918,196.990801 157.075455,197.05048 C157.049992,197.110158 157.068504,197.179509 157.12032,197.21856 L158.2392,198.02832 L156.74736,197.904 L156.6096,198.97248 C156.557998,199.427562 156.867956,199.844756 157.31856,199.92672 L159.67056,200.38368 C159.67056,200.38368 159.18,201.26064 161.57568,202.7088 C162.11328,203.04816 163.296,201.47232 163.296,201.47232 Z" id="Path" fill="#ED5353" fill-rule="nonzero"></path>
                    <path d="M138.91248,203.2464 C138.91248,203.2464 146.35152,205.33296 153.1488,227.51568 L167.14992,218.28576 C167.14992,218.28576 168.58128,202.41312 154.04592,193.43856 L138.91248,203.2464 Z" id="Path" fill="#C2D8F0" fill-rule="nonzero"></path>
                    <path d="M158.95152,138.91584 C151.868835,134.63068 143.054924,134.384396 135.744,138.26736 L78.32832,169.22304 L62.03904,177.93552 C51.42816,183.61056 50.67888,198.5088 60.64128,205.67904 L60.64128,205.67904 C74.02752,215.31216 91.58688,216.63264 105.88368,209.076 L125.37168,198.7776 L171.2256,172.032 C181.04688,166.3032 180.8856,152.0568 170.93328,146.09616 L158.95152,138.91584 Z" id="Path" fill="#C2D8F0" fill-rule="nonzero"></path>
                    <path d="M119.74704,184.9008 L119.74704,184.9008 C114.749702,184.9008 110.69856,180.849658 110.69856,175.85232 L110.69856,61.36704 L128.79552,61.36704 L128.79552,175.85232 C128.79552,180.849658 124.744378,184.9008 119.74704,184.9008 L119.74704,184.9008 Z" id="Path" fill="#0D3B6E" fill-rule="nonzero"></path>
                    <polygon id="Path" fill="#0A2B52" fill-rule="nonzero" points="110.26848 132.56208 110.69856 61.36704 128.79552 61.36704 128.79552 132.56208"></polygon>
                    <path d="M147.57792,24.60528 L145.36704,23.33184 C137.97504,19.29984 129.67584,20.48256 122.04192,24.87408 L122.04192,24.87408 L61.18224,59.808 L103.152,136.64784 L165.15072,100.98144 C167.122884,99.8396111 168.336,97.7331003 168.336,95.45424 L168.336,60.5808 C168.338127,45.7423189 160.425649,32.029321 147.57792,24.60528 Z" id="Path" fill="url(#linearGradient-1)" fill-rule="nonzero"></path>
                    <path d="M103.152005,136.64784 L48.65952,105.168 L48.65952,79.0272 C48.65952,62.8488 66.1752,52.7352 80.1864,60.82608 L82.39728,62.10288 C95.2473179,69.5274538 103.1593,83.2443749 103.152005,98.08512 L103.152005,136.64784 Z" id="Path" fill="#13549C" fill-rule="nonzero"></path>
                    <path d="M98.29008,78.56688 L48.65952,105.168 L103.152012,136.64784 L103.152012,98.08512 C103.157171,91.2786956 101.487447,84.5755644 98.29008,78.56688 Z" id="Path" fill="#1A77DE" fill-rule="nonzero"></path>
                    <path d="M48.65952,105.168 L31.39584,115.38576 C18.55056,122.976 18.48,141.54672 31.28496,149.22432 L31.28496,149.22432 C46.6174103,158.424436 65.7466278,158.531353 81.18096,149.5032 L103.152,136.64784 L103.152,133.21728 L48.65952,105.168 Z" id="Path" fill="#1257A1" fill-rule="nonzero"></path>
                    <path d="M49.056,105.168 L31.38912,114.24 C18.54384,121.83696 18.49008,138.096 31.28496,145.77024 L31.28496,145.77024 C46.6184263,154.966726 65.7456525,155.073633 81.18096,146.04912 L103.152,133.21728 L49.056,105.168 Z" id="Path" fill="#1563B8" fill-rule="nonzero"></path>
                    <ellipse id="Oval" fill="#0D3B6E" fill-rule="nonzero" transform="translate(133.637624, 101.512803) rotate(-59.430000) translate(-133.637624, -101.512803) " cx="133.637624" cy="101.512803" rx="6.97872" ry="4.44192"></ellipse>
                    <ellipse id="Oval" fill="#FFFFFF" fill-rule="nonzero" transform="translate(136.104325, 102.483851) rotate(-59.430000) translate(-136.104325, -102.483851) " cx="136.104325" cy="102.483851" rx="6.97872" ry="4.44192"></ellipse>
                    <polygon id="Path" fill="#C24444" fill-rule="nonzero" points="133.95984 51.41472 150.2088 43.25328 150.2088 55.05024 133.95984 64.30704"></polygon>
                    <polygon id="Path" fill="#1257A1" fill-rule="nonzero" opacity="0.27" style="mix-blend-mode: multiply;" points="103.16544 116.59872 71.904 128.75856 49.056 114.5592 86.82912 99.86928 103.16544 110.01984"></polygon>
                    <path d="M135.96576,105.168 L135.96576,105.168 C134.852354,105.168 133.94976,104.265406 133.94976,103.152 L133.94976,48.98208 C133.94976,47.8686739 134.852354,46.96608 135.96576,46.96608 L135.96576,46.96608 C137.079166,46.96608 137.98176,47.8686739 137.98176,48.98208 L137.98176,103.17552 C137.968877,104.27973 137.070045,105.168 135.96576,105.168 L135.96576,105.168 Z" id="Path" fill="#0D3B6E" fill-rule="nonzero"></path>
                    <path d="M133.95984,52.08 L134.00352,52.10352 C136.45167,53.6338573 139.535492,53.7225172 142.06752,52.33536 L153.04128,46.31424 L152.92704,58.8672 L142.03392,65.07312 C139.525451,66.500173 136.441935,66.461629 133.96992,64.97232 L133.96992,64.97232 L133.95984,52.08 Z" id="Path" fill="#ED5353" fill-rule="nonzero"></path>
                    <ellipse id="Oval" fill="#C2D8F0" fill-rule="nonzero" transform="translate(203.157246, 192.566368) rotate(-1.540000) translate(-203.157246, -192.566368) " cx="203.157246" cy="192.566368" rx="15.73152" ry="8.96112"></ellipse>
                    <path d="M193.27728,192.62544 L197.61504,188.4456 C198.19632,188.1096 199.50672,187.86096 200.40048,187.88784 C200.772785,187.878193 201.091407,188.153168 201.13632,188.52288 L201.20352,189.2856 C201.34128,190.3776 201.2304,190.5456 200.46096,191.00592 L195.888,193.73088 C195.11856,194.1912 193.94256,194.33568 193.27392,194.06688 L193.08576,193.98624 C192.4272,193.69056 192.50784,193.0824 193.27728,192.62544 Z" id="Path" fill="#343456" fill-rule="nonzero"></path>
                    <path d="M200.5416,188.36496 C200.41728,189.8904 197.28912,190.30704 197.29584,188.75136 C194.1576,174.1992 194.25168,161.0112 194.19792,145.76352 L204.0528,138.18 C202.7088,151.3512 201.0288,162.47952 200.74992,173.89344 C200.71632,175.37184 201.38496,176.9712 201.40512,178.39584 C201.44544,181.35264 200.41392,185.472 200.5416,188.36496 Z" id="Path" fill="#ED5353" fill-rule="nonzero"></path>
                    <path d="M199.97712,189.26544 C199.97712,189.26544 196.71456,191.22768 196.01904,190.91184 C195.4344,190.64304 197.74608,188.55984 197.74608,188.55984 L199.97712,189.26544 Z" id="Path" fill="#ED5353" fill-rule="nonzero"></path>
                    <path d="M213.77328,191.02272 L213.98496,183.94656 C214.1832,183.27456 215.08704,183.19392 215.8296,182.60256 C216.142614,182.341864 216.594259,182.332106 216.91824,182.57904 L217.57008,183.10656 C218.5344,183.82896 218.57808,184.03392 218.316,184.9008 L216.7536,190.06512 C216.450948,190.972973 215.773043,191.707167 214.89216,192.08112 L214.67712,192.14832 C213.91776,192.40368 213.50784,191.89296 213.77328,191.02272 Z" id="Path" fill="#343456" fill-rule="nonzero"></path>
                    <path d="M216.32688,182.784 C216.32688,182.784 215.712,187.27632 214.59312,187.488 C214.59312,187.488 213.87408,187.62576 213.92112,186.48 C213.96816,185.33424 213.77328,183.12 213.77328,183.12 L216.32688,182.784 Z" id="Path" fill="#ED5353" fill-rule="nonzero"></path>
                    <path d="M216.17568,182.34048 C216.90144,183.41232 215.56752,185.41152 214.41504,184.69248 C210.4368,180.99648 207.45984,178.12704 204.63072,175.26096 C202.48368,173.0904 202.95072,167.74464 201.30432,164.69376 C197.41008,157.41264 206.22336,153.37056 208.55184,161.54208 C209.50608,164.88192 207.54384,167.92608 208.41072,170.88288 C208.87776,172.4688 210.63504,172.56288 212.06304,174.96528 C213.49104,177.36768 214.1328,178.84608 216.17568,182.34048 Z" id="Path" fill="#ED5353" fill-rule="nonzero"></path>
                    <path d="M175.21392,135.04512 L175.21392,135.04512 C176.11776,134.63184 176.5848,133.66416 176.25552,132.89472 L174.36048,130.34448 C174.02448,129.57168 174.48144,128.91984 173.5776,129.33648 L173.5776,129.33648 C172.67376,129.74976 171.95808,130.29408 172.28064,131.90352 L173.26176,134.05728 C173.386246,134.338196 173.554047,134.597835 173.75904,134.82672 C174.14544,135.23664 174.5016,135.36768 175.21392,135.04512 Z" id="Path" fill="#ED5353" fill-rule="nonzero"></path>
                    <path d="M206.56272,111.43104 C208.19568,118.20816 218.23872,113.87376 215.58432,124.51488 C214.30752,129.6288 201.25728,126.57456 201.25728,126.57456 L198.56928,111.29328 L206.56272,111.43104 Z" id="Path" fill="#233B6E" fill-rule="nonzero"></path>
                    <path d="M196.31472,118.272 L183.97008,126.84672 C183.310619,127.303474 182.924425,128.060718 182.94192,128.86272 C182.97552,130.5864 183.56352,133.23072 187.00416,132.1824 C197.25216,129.09456 196.31472,118.272 196.31472,118.272 Z" id="Path" fill="#F0A711" fill-rule="nonzero"></path>
                    <path d="M206.69376,137.49456 C209.27088,143.35104 207.80928,155.99808 209.96976,166.95504 C209.96976,166.95504 202.82304,171.90768 194.26848,167.7984 C193.40496,160.6248 193.78464,152.41632 193.07904,142.5984 L206.69376,137.49456 Z" id="Path" fill="#27427A" fill-rule="nonzero"></path>
                    <path d="M203.4816,169.2768 C208.0512,162.44592 205.968,140.85792 203.18256,138.20016 L206.42496,136.72176 C212.03616,145.89456 209.38848,155.67888 211.5456,166.62576 C211.5456,166.656 206.7576,169.03488 203.4816,169.2768 Z" id="Path" fill="#213766" fill-rule="nonzero"></path>
                    <path d="M193.63008,143.01504 C193.45872,140.38416 194.27856,140.28 194.28192,137.24256 C194.358902,135.54519 194.321859,133.844568 194.17104,132.15216 C193.94256,130.0824 192.69936,128.49312 193.18992,125.9832 C193.27056,124.6056 194.84976,122.4216 194.97408,121.42032 C195.16896,119.8344 195.31008,118.36944 198.67008,116.86416 L200.13168,117.20016 C200.827724,117.361563 201.503821,117.599324 202.14768,117.90912 C208.90464,121.18176 210.3864,121.3632 209.84208,125.34144 C209.72784,127.39104 208.53504,125.77488 208.16208,127.1256 C207.40944,129.71952 207.01968,132.88464 207.91008,137.47104 C208.08816,138.3984 210.06384,141.4392 209.39184,142.20864 C205.57824,146.55648 194.83296,145.77024 193.63008,143.01504 Z" id="Path" fill="#FFBE3B" fill-rule="nonzero"></path>
                    <path d="" id="Path" fill="#FF5CAB" fill-rule="nonzero"></path>
                    <path d="M205.77648,119.65632 C205.77648,119.65632 203.17248,125.60016 199.584,123.984 C195.99552,122.36784 198.70704,116.99184 198.70704,116.99184 C201.164464,117.584802 203.53901,118.479771 205.77648,119.65632 Z" id="Path" fill="#ED5353" fill-rule="nonzero"></path>
                    <path d="M201.53952,120.73824 L201.2976,120.78192 C200.927578,120.870892 200.537183,120.798823 200.223318,120.583601 C199.909453,120.368379 199.701544,120.030183 199.6512,119.65296 L199.13712,115.3152 C199.075708,114.497712 199.648745,113.768658 200.4576,113.6352 L200.69952,113.58816 C201.069542,113.499188 201.459937,113.571257 201.773802,113.786479 C202.087667,114.001701 202.295576,114.339897 202.34592,114.71712 L203.48832,118.76928 C203.57904,119.5488 202.356,120.58704 201.53952,120.73824 Z" id="Path" fill="#ED5353" fill-rule="nonzero"></path>
                    <path d="M205.08768,119.3136 C205.08768,119.3136 202.77936,125.44896 199.18416,123.74544 C196.39536,122.42496 198.51216,117.36144 198.51216,117.36144 L197.7528,117.49248 C197.7528,117.49248 195.22272,123.4464 199.2984,125.1936 C202.88352,126.72912 206.0352,119.79744 206.0352,119.79744 L205.08768,119.3136 Z" id="Path" fill="#FFFFFF" fill-rule="nonzero"></path>
                    <path d="M199.44288,117.50592 C200.790449,117.415383 202.030135,116.73718 202.83312,115.6512 C202.83312,115.6512 201.4152,118.46016 199.58736,118.73904 L199.44288,117.50592 Z" id="Path" fill="#BA4141" fill-rule="nonzero"></path>
                    <path d="M209.36496,142.21536 C210.03696,141.44592 208.06128,138.40512 207.8832,137.47776 C207.08016,133.34496 207.31872,130.368 207.92352,127.92192 L206.10912,126.04368 C205.77312,128.1 205.38,130.11936 204.64416,131.87328 C204.02592,132.36384 201.91248,133.92288 200.38032,133.55328 C200.38032,133.55328 202.76928,134.44368 204.19056,134.44032 L204.82896,144.732 C206.64,144.26832 208.28976,143.45184 209.36496,142.21536 Z" id="Path" fill="#F0A711" fill-rule="nonzero"></path>
                    <path d="M194.23824,132.56208 L195.5016,132.51168 C194.8296,132.28656 194.18448,131.41296 193.98288,131.124 L193.9224,131.02992 L194.23824,132.56208 Z" id="Path" fill="#F0A711" fill-rule="nonzero"></path>
                    <path d="M203.448,108.75648 C202.776,107.63424 201.72768,107.41248 200.73648,108.04416 C199.7856,107.6376 198.61968,108.18864 197.74272,109.62336 C196.51632,111.62256 196.58688,114.43152 197.2992,116.2056 C197.68224,117.16656 198.14256,117.83856 200.43408,117.4824 C201.9864,117.21024 202.86672,116.77344 203.7672,115.2984 C204.99024,113.2992 204.42576,110.38944 203.448,108.75648 Z" id="Path" fill="#ED5353" fill-rule="nonzero"></path>
                    <path d="M198.00816,110.4096 C200.69616,114.70368 202.29888,113.51424 202.35264,114.17616 L202.78608,115.95024 C203.04144,117.27408 204.3888,116.76336 205.66896,117.21024 L205.66896,117.21024 C205.66896,117.21024 208.35696,110.98752 204.79536,108.38688 C201.23376,105.78624 196.3416,108.19872 196.812,111.69984 L198.00816,110.4096 Z" id="Path" fill="#233B6E" fill-rule="nonzero"></path>
                    <path d="M203.69664,114.75744 C203.404365,115.243091 202.793612,115.431238 202.27872,115.19424 C202.047049,115.074113 201.877781,114.860679 201.813582,114.607736 C201.749384,114.354792 201.796378,114.086469 201.94272,113.8704 C202.234995,113.384749 202.845748,113.196602 203.36064,113.4336 C203.592311,113.553727 203.761579,113.767161 203.825778,114.020104 C203.889976,114.273048 203.842982,114.541371 203.69664,114.75744 Z" id="Path" fill="#ED5353" fill-rule="nonzero"></path>
                    <path d="M198.26688,116.5248 L198.26688,116.5248 C197.86704,116.36016 197.5512,115.70496 197.56128,115.0632 L199.01616,115.66464 C199.00608,116.3064 198.67008,116.6928 198.26688,116.5248 Z" id="Path" fill="#FFFFFF" fill-rule="nonzero"></path>
                    <polygon id="Path" fill="#A3C3E8" fill-rule="nonzero" points="203.66976 158.3232 173.58432 144.5472 173.98752 121.42368 204.07296 135.20304"></polygon>
                    <polygon id="Path" fill="#CEE5FF" fill-rule="nonzero" points="173.98752 121.42368 185.97936 141.63744 204.07296 135.20304"></polygon>
                    <path d="M201.90576,147.53424 L201.90576,147.53424 C202.70208,148.1256 203.77728,148.07184 204.29136,147.40992 L205.61184,144.52032 C206.12592,143.84832 205.70256,144.2784 204.90624,143.68368 L204.90624,143.68368 C204.10656,143.09232 204.49632,142.39008 203.22624,143.45184 L201.81168,145.35024 C201.625513,145.593923 201.480254,145.866284 201.3816,146.15664 C201.22032,146.69424 201.264,147.07056 201.90576,147.53424 Z" id="Path" fill="#ED5353" fill-rule="nonzero"></path>
                    <path d="M210.18144,137.35344 L203.84112,143.22 L204.86928,144.73872 L213.23568,140.70672 C213.969426,140.355332 214.497426,139.681977 214.66368,138.8856 L213.71616,134.67216 L210.18144,137.35344 Z" id="Path" fill="#ED5353" fill-rule="nonzero"></path>
                    <path d="M205.98816,126.51744 L209.1264,135.87504 C209.61024,138.17328 211.23312,137.7768 212.1504,137.60544 C213.4944,137.35008 214.6536,136.26144 214.284,134.64864 C213.2592,130.1832 210.66528,124.25616 209.42208,122.39136 C208.88448,121.5816 207.92688,121.53792 206.69712,121.0944 C206.49552,121.02048 206.80464,122.0352 206.64336,122.22336 L206.64336,122.22336 C205.667083,123.432057 205.416766,125.072596 205.98816,126.51744 Z" id="Path" fill="#FFBE3B" fill-rule="nonzero"></path>
                    <polygon id="Path" fill="#8DB0D9" fill-rule="nonzero" points="187.37376 141.14352 188.06928 142.62192 204.07296 135.20304"></polygon>
                    <polygon id="Path" fill="#9FBFE3" fill-rule="nonzero" points="38.92896 137.4072 5.47344 130.4016 5.47344 107.25792 38.92896 114.26352"></polygon>
                    <polygon id="Path" fill="#C2D8F0" fill-rule="nonzero" points="5.47344 107.25792 19.09152 124.72992 38.92896 114.26352"></polygon>
                    <polygon id="Path" fill="#8DB0D9" fill-rule="nonzero" points="19.09152 124.72992 21.36624 125.72112 38.92896 114.26352"></polygon>
                    <path d="M30.3576,223.71888 C26.07696,221.55504 18.87312,221.63568 14.26992,223.90032 C13.5631448,224.238939 12.9007265,224.663248 12.2976,225.16368 C9.29712,224.2968 5.27856,224.54544 2.5536,225.88608 C-0.672,227.472 -0.86688,230.00208 2.14032,231.5208 C5.03328,232.9824 9.81456,232.9824 13.0536,231.56784 C13.2552,231.6888 13.46352,231.8064 13.68528,231.90384 C17.96928,234.06768 25.16976,233.98368 29.77296,231.71904 C34.37616,229.4544 34.63824,225.87936 30.3576,223.71888 Z" id="Path" fill="#8288D4" fill-rule="nonzero" opacity="0.21" style="mix-blend-mode: multiply;"></path>
                    <path d="M10.62432,147.4032 C10.11696,146.12976 7.98,140.3472 7.98,140.3472 L3.45408,142.128 L6.47808,152.80608 L10.62432,147.4032 Z" id="Path" fill="#ED5353" fill-rule="nonzero"></path>
                    <path d="M9.98928,144.984 C9.98928,144.984 13.17792,152.85312 14.02128,155.23872 C14.86464,157.62432 8.77632,159.8352 8.77632,159.8352 L3.73632,147.81648 L9.98928,144.984 Z" id="Path" fill="#9AB9DB" fill-rule="nonzero"></path>
                    <path d="M3.93456,224.112 L6.40416,224.40096 C8.0304,223.83648 8.77968,223.27872 9.53904,224.08512 L9.75744,224.3136 C10.09344,224.89824 10.0128,225.91632 9.47184,226.35984 L5.48016,229.71984 C4.65024,230.15664 3.07104,229.83072 2.79216,228.62112 C2.79216,228.62112 2.51328,225.21072 2.89632,225.02592 C3.65232,224.66304 3.26928,224.47488 3.93456,224.112 Z" id="Path" fill="#27427A" fill-rule="nonzero"></path>
                    <polygon id="Path" fill="#27427A" fill-rule="nonzero" points="9.75744 191.21088 19.05792 192.83376 19.05792 183.12 9.75744 181.49712"></polygon>
                    <path d="M22.01136,225.91296 L25.32096,226.19184 C27.67296,225.67104 28.84896,225.15024 29.68896,225.9096 L29.93088,226.12464 C30.26688,226.67232 29.8872,227.62656 29.03712,228.03984 L22.75056,231.168 C21.50736,231.57456 20.13984,231.24528 20.03904,230.11296 C20.03904,230.11296 19.78368,226.93776 20.35488,226.75296 C21.504,226.4136 21.0168,226.23552 22.01136,225.91296 Z" id="Path" fill="#27427A" fill-rule="nonzero"></path>
                    <path d="M23.83584,227.32752 C23.92992,228.67152 20.69088,228.88656 20.5968,227.55264 L20.29104,223.22496 L23.53344,222.99648 L23.83584,227.32752 Z" id="Path" fill="#A8ACBA" fill-rule="nonzero"></path>
                    <path d="M24.25248,223.39968 C23.24448,225.02256 20.43888,225.22752 19.75008,224.23968 C18.89328,218.15136 16.296,211.80768 17.96256,203.20272 L13.13088,177.91536 L24.71952,179.25936 L24.40032,206.40144 L24.25248,223.39968 Z" id="Path" fill="#27427A" fill-rule="nonzero"></path>
                    <path d="M6.048,226.03728 C5.83632,227.35776 2.63088,226.84032 2.84256,225.5232 L3.51456,221.2392 L6.72,221.76 L6.048,226.03728 Z" id="Path" fill="#A8ACBA" fill-rule="nonzero"></path>
                    <path d="M7.33824,222.30768 C5.99424,223.65168 3.2088,223.2216 2.76192,222.10272 C3.31296,215.9808 2.22432,209.2104 5.78592,201.21024 L6.82416,175.48608 L17.808,179.424 L11.34672,205.7832 L7.33824,222.30768 Z" id="Path" fill="#27427A" fill-rule="nonzero"></path>
                    <path d="M18.72528,149.52 C18.9336,152.14416 17.42496,153.468 15.36528,152.48352 C13.3056,151.49904 12.3648,148.3272 12.15648,145.7064 C11.94816,143.0856 13.65168,142.8336 14.60928,142.99152 C16.85712,143.36112 18.5136,146.89584 18.72528,149.52 Z" id="Path" fill="#ED5353" fill-rule="nonzero"></path>
                    <path d="M22.0416,148.40784 C21.96768,151.03536 19.56864,152.5944 17.61648,151.39488 C15.66432,150.19536 14.13888,147.08736 14.2128,144.45648 C14.28672,141.8256 15.92976,140.67312 17.88192,141.87264 C19.83408,143.07216 22.11216,145.77696 22.0416,148.40784 Z" id="Path" fill="#ED5353" fill-rule="nonzero"></path>
                    <path d="M15.74832,156.50208 L15.47952,156.43152 C14.5705966,156.192917 14.024447,155.265663 14.25648,154.35504 L15.58032,149.2344 C15.8189232,148.325477 16.7461772,147.779327 17.6568,148.01136 L17.9256,148.08192 C18.8358841,148.319029 19.3838116,149.246753 19.152,150.1584 L18.60432,155.2656 C18.36576,156.1728 16.65552,156.73728 15.74832,156.50208 Z" id="Path" fill="#ED5353" fill-rule="nonzero"></path>
                    <path d="M13.06704,150.72624 C13.06704,150.72624 13.5576,152.49696 16.7832,152.13408 C19.2192,151.86192 17.4552,147.68208 19.70304,146.6472 C22.72704,145.24608 21.52752,142.296 20.19696,141.33168 C18.8664,140.36736 17.17296,140.92512 15.08304,141.624 C12.87552,142.35984 9.86832,144.07008 13.06704,150.72624 Z" id="Path" fill="#27427A" fill-rule="nonzero"></path>
                    <circle id="Oval" fill="#ED5353" fill-rule="nonzero" cx="19.27968" cy="147.7224" r="1.1592"></circle>
                    <path d="M6.01104,181.01664 C5.65824,173.86992 6.83424,167.91264 6.52176,162.33168 C6.64272,151.66704 7.728,153.91152 11.22576,153.19248 L13.57776,152.93376 C14.31024,153.07152 14.9856,153.40752 15.708,153.5856 C18.732,154.3248 20.67072,154.48944 22.84128,155.66544 C24.77664,156.71376 24.88752,159.51264 24.88416,161.85792 C25.40496,168.72912 25.55616,179.07456 25.64352,182.46816 C24.528,187.32336 7.84896,184.30272 6.01104,181.01664 Z" id="Path" fill="#9AB9DB" fill-rule="nonzero"></path>
                    <path d="M19.71312,151.71408 L19.28976,151.1664 C19.7553472,151.382497 20.2924928,151.382497 20.75808,151.1664 C20.4649262,151.439011 20.1041032,151.628125 19.71312,151.71408 L19.71312,151.71408 Z" id="Path" fill="#BA4141" fill-rule="nonzero"></path>
                    <path d="M25.67376,162.6576 L23.89968,164.5728 C21.81648,172.9728 22.7808,181.49712 19.36704,185.0688 C21.45696,185.0688 23.37216,184.78992 24.78672,183.74832 C24.864,183.74832 25.51584,183.17712 25.61328,182.1288 L25.67376,162.6576 Z" id="Path" fill="#82A1C7" fill-rule="nonzero"></path>
                    <path d="M13.15104,152.78928 C13.15104,152.78928 12.5832,154.33488 14.40432,154.9128 C16.22544,155.49072 19.23264,154.47264 19.23264,154.47264 C19.23264,154.47264 17.23008,152.376 13.15104,152.78928 Z" id="Path" fill="#FFFFFF" fill-rule="nonzero"></path>
                    <path d="M19.69968,148.512 L19.69968,148.512 C19.4875136,148.537784 19.2941587,148.387896 19.26624,148.176 L18.59424,145.71984 C18.56736,145.51152 19.11504,145.63584 19.32672,145.6056 L19.32672,145.6056 C19.53504,145.57872 20.13984,145.3872 20.16672,145.6056 L20.04576,148.08192 C20.0570592,148.184876 20.0269147,148.288095 19.9619821,148.368788 C19.8970495,148.449481 19.8026694,148.501011 19.69968,148.512 Z" id="Path" fill="#27427A" fill-rule="nonzero"></path>
                    <path d="M5.91696,128.85264 C5.91696,128.85264 3.13488,139.1544 3.44736,141.91632 C3.75984,144.67824 8.27904,141.35184 8.27904,141.35184 L8.86704,130.23024 L5.91696,128.85264 Z" id="Path" fill="#ED5353" fill-rule="nonzero"></path>
                    <path d="M5.5608,126.336 L5.5608,126.336 C6.48144,125.84208 7.54992,126.03696 7.93968,126.76944 L8.70912,129.86736 C9.09888,130.6032 8.75616,130.12608 7.83552,130.62 L7.83552,130.62 C6.91824,131.11728 7.16352,131.88 6.11856,130.64016 L5.06352,128.5368 C4.92217616,128.264512 4.82788731,127.970285 4.78464,127.66656 C4.704,127.10208 4.8384,126.72912 5.5608,126.336 Z" id="Path" fill="#ED5353" fill-rule="nonzero"></path>
                    <path d="M39.3792,134.6184 C39.3792,134.6184 38.49888,144.23472 37.19184,146.68752 C35.8848,149.14032 31.8864,145.65936 31.8864,145.65936 L36.49968,134.90736 L39.3792,134.6184 Z" id="Path" fill="#ED5353" fill-rule="nonzero"></path>
                    <path d="M39.3792,131.16432 L39.3792,131.16432 C38.42832,130.73424 37.3632,131.00976 37.0272,131.76912 L36.48624,134.91408 C36.15024,135.6768 36.45936,135.1728 37.4136,135.60288 L37.4136,135.60288 C38.36448,136.0296 38.16624,136.80912 39.1272,135.49536 L40.02432,133.32144 C40.1464153,133.039129 40.2191512,132.737957 40.23936,132.43104 C40.2864,131.85984 40.12848,131.50032 39.3792,131.16432 Z" id="Path" fill="#ED5353" fill-rule="nonzero"></path>
                    <path d="M32.38032,155.59152 C33.05232,154.38864 36.65088,147.19152 36.65088,147.19152 L32.39712,144.83952 L23.22432,156.93552 L32.38032,155.59152 Z" id="Path" fill="#ED5353" fill-rule="nonzero"></path>
                    <path d="M25.536,165.17088 L33.6336,154.51632 C35.80416,153.2328 28.64736,147.93408 26.4096,149.71152 C26.26848,149.8224 19.27632,157.52352 19.27632,157.52352 C19.27632,157.52352 21.24192,165.5136 25.536,165.17088 Z" id="Path" fill="#9AB9DB" fill-rule="nonzero"></path>
                    <polygon id="Path" fill="#C2D8F0" fill-rule="nonzero" points="92.48736 233.14368 133.02576 209.73792 107.96016 195.2664 82.71648 234.56496"></polygon>
                    <polygon id="Path" fill="#C44545" fill-rule="nonzero" points="82.71648 233.14368 123.25488 209.73792 98.18928 195.2664 57.64752 218.67216"></polygon>
                    <polygon id="Path" fill="#B03F3F" fill-rule="nonzero" points="57.64752 218.67216 57.64752 219.85824 82.71648 234.56496 82.71648 233.14368"></polygon>
                    <polygon id="Path" fill="#A13939" fill-rule="nonzero" points="123.25488 211.18944 82.71648 234.56496 82.71648 233.14368 123.25488 209.73792"></polygon>
                    <polygon id="Path" fill="#C44545" fill-rule="nonzero" points="82.71648 229.9416 123.25488 206.53584 98.18928 192.06432 57.64752 215.46672"></polygon>
                    <polygon id="Path" fill="#B03F3F" fill-rule="nonzero" points="57.64752 215.46672 57.64752 216.65616 82.71648 231.36288 82.71648 229.9416"></polygon>
                    <polygon id="Path" fill="#A13939" fill-rule="nonzero" points="123.25488 207.98736 82.71648 231.36288 82.71648 229.9416 123.25488 206.53584"></polygon>
                    <polygon id="Path" fill="#ED5353" fill-rule="nonzero" points="82.71648 226.56144 123.25488 203.15568 98.18928 188.68416 57.64752 212.08992"></polygon>
                    <polygon id="Path" fill="#B03F3F" fill-rule="nonzero" points="57.64752 212.08992 57.64752 213.27936 82.71648 227.98272 82.71648 226.56144"></polygon>
                    <polygon id="Path" fill="#A13939" fill-rule="nonzero" points="123.25488 204.61056 82.71648 227.98272 82.71648 226.56144 123.25488 203.15568"></polygon>
                    <polygon id="Path" fill="#D94C4C" fill-rule="nonzero" points="82.71648 226.56144 87.9648 205.08432 95.50464 200.73648 123.25488 203.15568"></polygon>
                    <polygon id="Path" fill="#F26D6D" fill-rule="nonzero" points="57.64752 212.08992 97.57104 208.572 98.18928 188.68416"></polygon>
                    <polygon id="Path" fill="#D94C4C" fill-rule="nonzero" points="57.93648 212.08992 93.16944 212.40576 86.87952 209.51616"></polygon>
                    <polygon id="Path" fill="#ED5353" fill-rule="nonzero" points="172.47888 205.12128 169.92864 199.7688 166.60896 200.07456 168.42336 205.6992"></polygon>
                    <path d="M171.45072,193.34784 C171.45072,193.34784 173.11056,202.69872 166.74672,203.06496 C166.74672,203.06496 164.24016,203.97888 164.19648,197.40672 C164.1528,190.83456 168.71232,191.74512 171.45072,193.34784 Z" id="Path" fill="#ED5353" fill-rule="nonzero"></path>
                    <path d="M166.04448,203.04144 C167.078503,202.265837 167.900171,201.24193 168.43344,200.06448 L171.18864,201.68736 L172.35456,204.85584 L168.22512,205.33296 L167.62032,203.08176 C167.62032,203.08176 166.47456,203.28 166.04448,203.04144 Z" id="Path" fill="#ED5353" fill-rule="nonzero"></path>
                    <path d="M170.74176,202.11744 L170.28816,202.08048 C169.89168,202.17792 169.18944,201.25056 169.03824,200.86416 C168.7728,200.19216 167.90256,199.82928 167.63712,198.79776 C167.5296,198.38784 166.6896,198.56928 166.49136,197.83008 C166.12848,196.48608 164.4216,195.14208 164.4216,195.14208 C164.4216,195.14208 163.60176,194.85984 163.77648,194.17104 C164.03184,193.16304 164.64,193.36464 165.28176,192.80016 C166.71648,191.54016 171.93792,191.00256 173.46,194.38272 C175.19376,198.24 170.74176,202.11744 170.74176,202.11744 Z" id="Path" fill="#233B6E" fill-rule="nonzero"></path>
                    <path d="M166.72992,199.37232 C166.76352,200.01744 167.2104,200.53488 167.73792,200.5248 C168.26544,200.51472 168.64512,199.97712 168.61152,199.32864 C168.57792,198.68016 168.13104,198.16608 167.60352,198.17616 C167.076,198.18624 166.69632,198.72384 166.72992,199.37232 Z" id="Path" fill="#ED5353" fill-rule="nonzero"></path>
                    <ellipse id="Oval" fill="#A8C4E5" fill-rule="nonzero" opacity="0.4" style="mix-blend-mode: multiply;" transform="translate(168.367287, 241.349563) rotate(-2.650000) translate(-168.367287, -241.349563) " cx="168.367287" cy="241.349563" rx="15.64752" ry="8.18496"></ellipse>
                    <path d="M156.576,233.37552 C156.576,233.37552 156.62976,239.33952 171.56496,243.76464 L172.47216,242.36688 L159.8352,229.78032 L156.576,233.37552 Z" id="Path" fill="#ED5353" fill-rule="nonzero"></path>
                    <path d="M171.40704,244.272 L174.07488,245.4984 C175.66416,246.92976 176.3328,247.8504 177.31392,247.62192 L177.58944,247.55808 C178.57056,247.34304 178.73184,246.46944 177.94896,245.616 L174.89472,241.08 C174.096315,240.244187 172.869758,239.978123 171.7968,240.408 C171.7968,240.408 171.2088,240.6768 170.98704,242.51136 C170.85936,243.6 170.78208,243.6 171.40704,244.272 Z" id="Path" fill="#213766" fill-rule="nonzero"></path>
                    <path d="M153.0312,234.13152 C153.0312,234.13152 149.72496,240.26352 168.40656,247.02048 L169.75056,244.39632 L156.8784,234.29616 L153.0312,234.13152 Z" id="Path" fill="#ED5353" fill-rule="nonzero"></path>
                    <path d="M177.36768,226.02384 L161.49504,226.92768 C159.700769,227.026729 157.978152,227.664952 156.55248,228.75888 C153.54528,231.07728 149.73168,235.27056 156.67008,238.07952 L170.65776,242.80368 C173.65824,243.84864 176.40672,243.81168 178.44624,241.12368 C180.24048,238.77168 180.29424,233.32176 179.088,230.916 L177.36768,226.02384 Z" id="Path" fill="#213766" fill-rule="nonzero"></path>
                    <path d="M156.576,228.79584 C155.27568,229.80384 153.83088,231.14784 153.15888,232.58592 L161.616,235.43856 C163.90416,235.86192 165.984,235.4016 167.5968,233.27136 C168.74928,231.756 169.17936,228.97392 169.0248,226.55136 L161.52528,226.98144 C159.730331,227.073459 158.00512,227.705919 156.576,228.79584 Z" id="Path" fill="#27427A" fill-rule="nonzero"></path>
                    <path d="M168.336,247.23888 L170.96352,248.44848 C172.53264,249.85632 173.1912,250.75008 174.15552,250.5384 L174.42768,250.47792 C175.39536,250.26624 175.55328,249.40272 174.78384,248.56272 L173.52048,246.91632 C173.278452,246.592695 173.054123,246.256202 172.84848,245.90832 L171.78,244.09056 C170.991221,243.271059 169.783025,243.014251 168.72912,243.44208 C168.72912,243.44208 168.14784,243.70416 167.92944,245.5152 C167.80848,246.55008 167.7312,246.56688 168.336,247.23888 Z" id="Path" fill="#213766" fill-rule="nonzero"></path>
                    <path d="M177.6768,224.63616 C177.6768,224.63616 177.63312,220.71168 177.76416,218.28576 C177.95904,214.75104 178.12368,208.35024 178.12368,208.32336 C178.12368,206.4552 178.90656,205.32624 175.77168,203.69664 L172.368,202.85664 L167.95296,205.08432 C167.95296,205.08432 161.56896,209.78832 161.99568,214.116 C162.1872,216.132 164.26368,219.24336 165.03648,222.02208 L164.22,227.472 C164.58624,231.65856 176.19168,229.52496 177.97584,226.08768 C178.3488,225.36192 177.92544,224.70672 177.6768,224.63616 Z" id="Path" fill="#176BC7" fill-rule="nonzero"></path>
                    <path d="M165.47328,212.75184 C167.84544,217.06272 168.22512,228.67488 168.43008,229.80384 C166.09488,229.80384 164.21664,229.13184 164.06208,227.49216 L164.88192,222.04896 C164.10912,219.27024 162.03264,216.16896 161.84112,214.14288 C161.7,212.67456 162.34176,211.16256 163.25232,209.80512 L163.64544,209.54304 C163.64544,209.54304 164.304,210.61824 165.47328,212.75184 Z" id="Path" fill="#13549C" fill-rule="nonzero"></path>
                    <path d="M155.54784,217.93968 C151.90224,214.68384 148.2768,213.024 146.35152,210.336 L145.12176,212.03616 C145.12176,212.03616 153.27312,223.66848 155.37648,222.41856 C158.51808,220.55712 155.54784,217.93968 155.54784,217.93968 Z" id="Path" fill="#ED5353" fill-rule="nonzero"></path>
                    <path d="M166.02432,211.08192 C166.02432,211.08192 158.32992,221.49792 156.05184,221.69952 C153.77376,221.90112 154.32144,218.00352 154.32144,218.00352 L163.1112,209.21376 L166.02432,211.08192 Z" id="Path" fill="#ED5353" fill-rule="nonzero"></path>
                    <path d="M157.80576,213.99504 L156.88848,215.04 C157.467535,216.646229 158.807684,217.859165 160.46352,218.27568 L161.41776,217.24752 L157.80576,213.99504 Z" id="Path" fill="#FFFFFF" fill-rule="nonzero"></path>
                    <path d="M167.08944,205.94784 C164.972433,206.637867 163.113618,207.952039 161.75712,209.71776 C160.61808,211.27344 157.76208,214.11264 157.76208,214.11264 C157.6512,215.98752 158.86752,216.95856 161.86464,218.14464 L171.4608,207.21792 L167.08944,205.94784 Z" id="Path" fill="#176BC7" fill-rule="nonzero"></path>
                    <path d="M166.90128,205.94784 L167.8656,204.12336 L174.888,202.58784 C174.888,202.58784 174.23952,205.74624 171.09792,205.27584 C169.2768,205.00368 166.90128,205.94784 166.90128,205.94784 Z" id="Path" fill="#FFFFFF" fill-rule="nonzero"></path>
                    <path d="M145.33344,207.83952 C145.29984,208.12176 145.64928,208.78368 145.73328,209.20368 C145.868361,209.934223 145.940306,210.675037 145.94832,211.41792 C145.94832,211.41792 146.8656,212.2008 147.3864,211.3104 C147.9072,210.42 146.74128,208.92816 146.74128,208.92816 L145.79376,207.05664 C145.79376,207.05664 145.45104,206.7912 145.33344,207.83952 Z" id="Path" fill="#ED5353" fill-rule="nonzero"></path>
                    <path d="M142.66224,209.12976 C142.60512,208.76016 142.54464,208.3536 142.54464,208.3536 C142.442045,207.736407 142.606992,207.10472 142.99824,206.61648 L144.31872,208.1184 C145.12848,208.6224 145.78368,209.08608 145.8912,209.57328 L146.35488,209.77824 C146.422081,209.807114 146.468371,209.870121 146.47584,209.94288 L146.74128,212.0832 C146.75247,212.162508 146.717201,212.241209 146.650558,212.285637 C146.583916,212.330066 146.497704,212.332353 146.4288,212.29152 C146.27424,212.19072 146.05584,212.03616 145.80048,211.85136 L145.64592,212.57712 C145.64592,212.57712 143.81136,210.85344 143.13936,210.0504 L143.11584,210.02352 C142.878265,209.777949 142.720195,209.466492 142.66224,209.12976 Z" id="Path" fill="#ED5353" fill-rule="nonzero"></path>
                    <path d="M174.84768,248.53584 L173.58432,246.88944 C173.340484,246.567096 173.116085,246.230498 172.91232,245.88144 L171.84384,244.06704 C171.131573,243.329846 170.072627,243.042215 169.08528,243.31776 C169.12896,243.45216 169.00128,243.19344 169.08528,243.31776 C168.88368,243.77472 170.05968,245.52528 171.57168,247.28592 L173.85648,250.45104 L173.92032,250.5384 C174.022973,250.542683 174.125749,250.533648 174.22608,250.51152 L174.49824,250.45104 C175.45584,250.23936 175.61712,249.37584 174.84768,248.53584 Z" id="Path" fill="#172747" fill-rule="nonzero"></path>
                    <polygon id="Path" fill="#9FBFE3" fill-rule="nonzero" points="103.16544 113.148 71.904 125.30448 49.056 111.10848 86.82912 96.41856 103.16544 106.56912"></polygon>
                    <polygon id="Path" fill="#C2D8F0" fill-rule="nonzero" points="49.056 111.10848 79.36656 110.85984 86.82912 96.41856"></polygon>
                    <path d="M103.15207,98.08512 C103.157156,95.2727922 102.875702,92.4672594 102.312,89.712 L69.49824,97.20816 L86.9064,113.33616 L103.15207,109.64352 L103.15207,98.08512 Z" id="Path" fill="#E0EFFF" fill-rule="nonzero"></path>
                    <path d="M103.03104,96.432 L99.14016,100.51776 L69.49824,97.23168 L102.312,89.712 C102.312,89.712 103.488,93.76416 103.03104,96.432 Z" id="Path" fill="#FAFCFF" fill-rule="nonzero"></path>
                    <path d="M49.056,105.168 L49.056,78.1368 C49.056,61.9584 66.57168,51.8448 80.58288,59.93568 L82.79376,61.21248 C95.6458512,68.6318379 103.562846,82.3447236 103.56192,97.18464 L103.56192,135.744" id="Path" stroke="#C2D8F0" stroke-width="0.672" stroke-linecap="round" stroke-linejoin="round"></path>
                    <path d="M170.77872,194.16096 C170.77872,194.16096 174.39408,190.68336 176.57136,195.84096 C178.74864,200.99856 176.47392,206.44512 180.09264,209.7144 C180.09264,209.7144 173.13408,208.91472 172.91904,204.41232 C172.704,199.90992 173.59104,196.24416 171.12144,195.804 C168.65184,195.36384 170.77872,194.16096 170.77872,194.16096 Z" id="Path" fill="#233B6E" fill-rule="nonzero"></path>
                    <polygon id="Path" fill="#FFFFFF" fill-rule="nonzero" points="151.96608 81.99072 184.47744 76.66512 163.99488 88.4352"></polygon>
                    <polygon id="Path" fill="#FFFFFF" fill-rule="nonzero" points="184.47744 76.66512 167.85216 90.34032 178.06656 96.82176"></polygon>
                    <polygon id="Path" fill="#BED5F0" fill-rule="nonzero" points="163.99488 88.4352 165.48336 96.17328 167.85216 90.34032 184.47744 76.66512"></polygon>
                    <polygon id="Path" fill="#A3C3E8" fill-rule="nonzero" points="165.48336 96.17328 171.38688 92.5848 167.85216 90.34032"></polygon>
                    <path d="M120.15024,141.792 C120.093019,141.807407 120.032741,141.807407 119.97552,141.792 C119.328743,141.566311 118.694971,141.30495 118.07712,141.00912 C117.925284,140.920095 117.867882,140.728984 117.945535,140.571029 C118.023189,140.413075 118.209577,140.341816 118.3728,140.40768 C118.968818,140.688641 119.578906,140.938732 120.20064,141.15696 C120.345351,141.206783 120.438107,141.348105 120.426248,141.500693 C120.414389,141.653281 120.300911,141.778574 120.15024,141.80544 L120.15024,141.792 Z" id="Path" fill="#FFFFFF" fill-rule="nonzero"></path>
                    <path d="M131.9136,142.88736 C131.793559,142.911368 131.669828,142.869512 131.589015,142.777557 C131.508203,142.685602 131.482587,142.55752 131.521815,142.441557 C131.561044,142.325594 131.659159,142.239368 131.7792,142.21536 C133.049631,141.938087 134.275413,141.485769 135.42144,140.87136 C135.527076,140.81434 135.655108,140.818008 135.757306,140.880982 C135.859505,140.943956 135.920344,141.056669 135.916906,141.176662 C135.913469,141.296656 135.846276,141.4057 135.74064,141.46272 C134.537869,142.103616 133.252254,142.575121 131.92032,142.86384 L131.9136,142.88736 Z M127.95216,143.2704 L127.88496,143.2704 C126.530775,143.245624 125.18147,143.100574 123.85296,142.83696 C123.732919,142.813552 123.634484,142.727881 123.594735,142.612218 C123.554987,142.496555 123.579963,142.368473 123.660255,142.276218 C123.740548,142.183963 123.863959,142.141552 123.984,142.16496 C125.269572,142.418528 126.574875,142.559064 127.88496,142.58496 C128.070528,142.58496 128.22096,142.735392 128.22096,142.92096 C128.230983,143.088157 128.116334,143.237201 127.95216,143.2704 Z M138.84192,139.16112 C138.731735,139.18221 138.618293,139.146917 138.53952,139.06704 C138.475911,139.00395 138.440132,138.91807 138.440132,138.82848 C138.440132,138.73889 138.475911,138.65301 138.53952,138.58992 C139.46871,137.674437 140.28536,136.651367 140.97216,135.5424 C141.071285,135.387622 141.276378,135.341214 141.43248,135.43824 C141.508346,135.485365 141.562328,135.560756 141.582502,135.647758 C141.602677,135.734761 141.587383,135.826215 141.54,135.90192 C140.82467,137.05425 139.975396,138.117815 139.00992,139.0704 C138.965493,139.118386 138.906411,139.15029 138.84192,139.16112 L138.84192,139.16112 Z M143.11248,132.49824 C143.049077,132.50812 142.984191,132.501168 142.92432,132.47808 C142.752934,132.408225 142.670308,132.212927 142.73952,132.04128 L142.8168,131.84976 C143.2704,130.69392 143.70048,129.49776 144.0936,128.31504 C144.152054,128.138751 144.342351,128.043226 144.51864,128.10168 C144.694929,128.160134 144.790454,128.350431 144.732,128.52672 C144.33552,129.72624 143.90208,130.92912 143.44176,132.09504 L143.36112,132.29328 C143.318542,132.399477 143.224851,132.47671 143.11248,132.49824 Z M145.61568,124.93152 C145.565935,124.943007 145.514225,124.943007 145.46448,124.93152 C145.37845,124.907962 145.305318,124.851164 145.261199,124.773641 C145.217081,124.696119 145.205598,124.604236 145.22928,124.51824 C145.56528,123.31536 145.86096,122.052 146.17344,120.66096 C146.221531,120.489329 146.395273,120.385116 146.569333,120.423498 C146.743393,120.461881 146.857193,120.6295 146.82864,120.80544 C146.51616,122.20992 146.20368,123.49344 145.87776,124.69296 C145.842848,124.815832 145.741284,124.908282 145.61568,124.93152 L145.61568,124.93152 Z M147.38304,117.15984 C147.340746,117.166565 147.297654,117.166565 147.25536,117.15984 C147.168021,117.142034 147.091336,117.090253 147.042183,117.015894 C146.993031,116.941535 146.975439,116.850692 146.99328,116.76336 L147.07392,116.36016 C147.32256,115.13712 147.5544,113.98128 147.8064,112.85232 C147.847225,112.666752 148.030752,112.549415 148.21632,112.59024 C148.401888,112.631065 148.519225,112.814592 148.4784,113.00016 C148.22976,114.11904 147.99792,115.27152 147.74928,116.4912 L147.66864,116.89776 C147.638506,117.036763 147.524115,117.141734 147.38304,117.15984 Z M149.19072,109.39824 C149.137592,109.409895 149.082568,109.409895 149.02944,109.39824 C148.852284,109.343424 148.753032,109.155448 148.80768,108.97824 C149.19399,107.688986 149.68043,106.431881 150.26256,105.2184 C150.346257,105.056872 150.54331,104.991297 150.707106,105.070464 C150.870902,105.149632 150.941937,105.344784 150.86736,105.51072 C150.301552,106.693375 149.827515,107.917783 149.44944,109.17312 C149.409748,109.29171 149.307479,109.378444 149.184,109.39824 L149.19072,109.39824 Z M152.7288,102.31536 C152.589644,102.346556 152.445955,102.28651 152.370372,102.165577 C152.294789,102.044645 152.30378,101.889174 152.3928,101.77776 C153.230819,100.718332 154.175458,99.7477976 155.21184,98.88144 C155.354727,98.7617489 155.567589,98.7805529 155.68728,98.92344 C155.806971,99.0663271 155.788167,99.2791888 155.64528,99.39888 C154.642073,100.233268 153.728795,101.170195 152.92032,102.1944 C152.872405,102.255673 152.804716,102.298424 152.7288,102.31536 L152.7288,102.31536 Z" id="Shape" fill="#FFFFFF" fill-rule="nonzero"></path>
                    <path d="M158.79696,97.14432 C158.637063,97.1744496 158.478555,97.0856804 158.4207,96.9336033 C158.362845,96.7815262 158.422269,96.6098477 158.56176,96.52608 C159.12288,96.19008 159.72096,95.85408 160.3392,95.53488 C160.445769,95.4756559 160.576059,95.4788074 160.67964,95.5431146 C160.783221,95.6074219 160.84384,95.7227932 160.838034,95.8445751 C160.832229,95.9663569 160.760909,96.0754383 160.65168,96.1296 C160.04352,96.44544 159.45552,96.77136 158.90784,97.10064 C158.874103,97.1223316 158.836427,97.1371734 158.79696,97.14432 L158.79696,97.14432 Z" id="Path" fill="#FFFFFF" fill-rule="nonzero"></path>
                </g>
            </g>
        </g>
    </g>
</svg>