<?xml version="1.0" encoding="UTF-8"?>
<svg width="215px" height="213px" viewBox="0 0 215 213" version="1.1" xmlns="http://www.w3.org/2000/svg" xmlns:xlink="http://www.w3.org/1999/xlink">
    <!-- Generator: Sketch 63.1 (92452) - https://sketch.com -->
    <title>Unsubscribe email empty - Mobile</title>
    <desc>Created with Sketch.</desc>
    <defs>
        <linearGradient x1="-0.00313528766%" y1="50.0013257%" x2="99.9968647%" y2="50.0013257%" id="linearGradient-1">
            <stop stop-color="#2E90FE" offset="8%"></stop>
            <stop stop-color="#2077E7" offset="64%"></stop>
            <stop stop-color="#1A6DDE" offset="100%"></stop>
        </linearGradient>
    </defs>
    <g id="Responsive" stroke="none" stroke-width="1" fill="none" fill-rule="evenodd">
        <g id="21.1---responsive" transform="translate(-2725.000000, -411.000000)">
            <g id="Group-3" transform="translate(2652.000000, 279.000000)">
                <g id="Unsubscribe-email-empty---Mobile" transform="translate(73.000000, 132.000000)">
                    <path d="M36.4585416,58.0478087 C34.7620033,52.6005075 32.7393549,47.2601815 30.4015528,42.055759 C26.067041,32.6504348 23.5516248,17.0981665 44.6178186,5.21740621 C77.0050509,-13.0501789 67.7996273,23.4450112 97.8047106,11.8807602 C127.809794,0.316509317 159.980467,-0.12327205 164.251677,26.6267627 C168.522887,53.3767975 168.916025,66.390328 184.818119,70.9947056 C217.265322,80.3867031 230.542055,130.528442 185.321202,152.167684 C140.10035,173.806927 129.25241,144.071709 109.692134,144.944609 C90.1318584,145.817508 98.3644323,75.9988845 65.3808298,74.3663627 C45.2508373,73.373523 38.5941466,64.6845093 36.4585416,58.0478087 Z" id="Path" fill="#C2D8F0" fill-rule="nonzero"></path>
                    <path d="M136.072353,137.744855 C129.045189,133.489538 120.297468,133.24528 113.043801,137.101841 L56.1320944,167.796581 L39.9801242,176.43562 C29.4586882,182.062822 28.7157242,196.835478 38.5941466,203.945277 L38.5941466,203.945277 C51.8675478,213.497195 69.2788919,214.806544 83.4551776,207.313602 L102.778904,197.102012 L148.259627,170.581863 C158.001451,164.901354 157.838199,150.775043 147.969771,144.864648 L136.072353,137.744855 Z" id="Path" fill="#C2D8F0" fill-rule="nonzero"></path>
                    <path d="M97.1983453,183.342186 L97.1983453,183.342186 C92.2431327,183.342186 88.2261391,179.325193 88.2261391,174.36998 L88.2261391,60.8497491 L106.173883,60.8497491 L106.173883,174.36998 C106.172044,179.325732 102.154097,183.342186 97.1983453,183.342186 Z" id="Path" fill="#0D3B6E" fill-rule="nonzero"></path>
                    <polygon id="Path" fill="#0A2B52" fill-rule="nonzero" points="87.7996845 131.444653 88.2261391 60.8497491 106.173883 60.8497491 106.173883 131.444653"></polygon>
                    <path d="M124.794626,24.3978708 L122.605714,23.1351652 C115.276025,19.1371528 107.046783,20.3099031 99.4772124,24.664405 L99.4772124,24.664405 L39.1272149,59.3038509 L80.7731776,135.492641 L142.219297,100.130221 C144.179966,99.0014034 145.389146,96.9120117 145.391053,94.6496124 L145.391053,60.0701366 C145.389726,45.3541718 137.538682,31.7564483 124.794626,24.3978708 L124.794626,24.3978708 Z" id="Path" fill="url(#linearGradient-1)" fill-rule="nonzero"></path>
                    <path d="M80.7565193,135.495973 L26.7100547,104.281491 L26.7100547,78.3610435 C26.7100547,62.3190186 44.078087,52.2906708 57.9711801,60.3133491 L60.1634236,61.5793863 C72.9071786,68.9362031 80.7574374,82.5334965 80.7565193,97.2483205 L80.7565193,135.495973 Z" id="Path" fill="#13549C" fill-rule="nonzero"></path>
                    <path d="M75.9255876,77.9046037 L26.7100547,104.281491 L80.7565194,135.485978 L80.7565194,97.2583155 C80.7570684,90.5086049 79.0980633,83.8622871 75.9255876,77.9046037 Z" id="Path" fill="#1A77DE" fill-rule="nonzero"></path>
                    <path d="M26.7100547,104.281491 L9.59189814,114.41312 C-3.14510311,121.939379 -3.20507329,140.353558 9.48528447,147.96644 L9.48528447,147.96644 C24.6875252,157.099545 43.6612912,157.21196 58.9706832,148.259627 L80.769846,135.512631 L80.769846,132.09433 L26.7100547,104.281491 Z" id="Path" fill="#1257A1" fill-rule="nonzero"></path>
                    <path d="M27.1031925,104.281491 L9.58523478,113.277019 C-3.15176646,120.80994 -3.20507329,136.931925 9.48528447,144.541476 L9.48528447,144.541476 C24.6882655,153.660565 43.6533845,153.766573 58.9573565,144.818005 L80.7565193,132.071009 L27.1031925,104.281491 Z" id="Path" fill="#1563B8" fill-rule="nonzero"></path>
                    <ellipse id="Oval" fill="#0D3B6E" fill-rule="nonzero" transform="translate(110.971711, 100.655171) rotate(-59.430000) translate(-110.971711, -100.655171) " cx="110.971711" cy="100.655171" rx="6.91989317" ry="4.40447702"></ellipse>
                    <ellipse id="Oval" fill="#FFFFFF" fill-rule="nonzero" transform="translate(113.417618, 101.621366) rotate(-59.430000) translate(-113.417618, -101.621366) " cx="113.417618" cy="101.621366" rx="6.91989317" ry="4.40447702"></ellipse>
                    <polygon id="Path" fill="#C24444" fill-rule="nonzero" points="111.291339 50.9813217 127.403329 42.8886783 127.403329 54.5861963 111.291339 63.7649665"></polygon>
                    <path d="M113.277019,104.281491 L113.277019,104.281491 C112.172998,104.281491 111.278012,103.386505 111.278012,102.282484 L111.278012,48.5691876 C111.278012,47.4651669 112.172998,46.5701814 113.277019,46.5701814 L113.277019,46.5701814 C114.381039,46.5701814 115.276025,47.4651669 115.276025,48.5691876 L115.276025,102.305806 C115.26325,103.400708 114.371995,104.281491 113.277019,104.281491 Z" id="Path" fill="#0D3B6E" fill-rule="nonzero"></path>
                    <path d="M111.278012,51.6409938 L111.321324,51.6643155 C113.748837,53.1817529 116.806665,53.2696654 119.317349,51.8942012 L130.198606,45.923836 L130.085329,58.3709814 L119.284032,64.5245888 C116.796708,65.9396125 113.739185,65.9013935 111.288007,64.4246385 L111.288007,64.4246385 L111.278012,51.6409938 Z" id="Path" fill="#ED5353" fill-rule="nonzero"></path>
                    <path d="M27.1031925,104.281491 L27.1031925,77.4781491 C27.1031925,61.4361242 44.4712248,51.4077764 58.364318,59.4304547 L60.5565615,60.6964919 C73.3003165,68.0533087 81.1505753,81.6506021 81.1496571,96.3654261 L81.1496571,134.599752" id="Path" stroke="#C2D8F0" stroke-width="1.44" stroke-linecap="round" stroke-linejoin="round"></path>
                    <rect id="Rectangle" fill="#D8D8D8" opacity="0.463425409" style="mix-blend-mode: saturation;" x="0" y="0" width="214.56" height="212.4"></rect>
                </g>
            </g>
        </g>
    </g>
</svg>